<svg width="41" height="38" viewBox="0 0 41 38" fill="none" xmlns="http://www.w3.org/2000/svg">
<path d="M36.75 9.5H31.2025L28 6H17.5V9.5H26.46L29.6625 13H36.75V34H8.75V18.25H5.25V34C5.25 35.925 6.825 37.5 8.75 37.5H36.75C38.675 37.5 40.25 35.925 40.25 34V13C40.25 11.075 38.675 9.5 36.75 9.5ZM14 23.5C14 28.33 17.92 32.25 22.75 32.25C27.58 32.25 31.5 28.33 31.5 23.5C31.5 18.67 27.58 14.75 22.75 14.75C17.92 14.75 14 18.67 14 23.5ZM22.75 18.25C25.6375 18.25 28 20.6125 28 23.5C28 26.3875 25.6375 28.75 22.75 28.75C19.8625 28.75 17.5 26.3875 17.5 23.5C17.5 20.6125 19.8625 18.25 22.75 18.25ZM8.75 9.5H14V6H8.75V0.75H5.25V6H0V9.5H5.25V14.75H8.75V9.5Z" fill="#CBCFFE"/>
</svg>
