<svg width="327" height="280" viewBox="0 0 327 280" fill="none" xmlns="http://www.w3.org/2000/svg">
<g filter="url(#filter0_d_637_4815)">
<circle cx="164.5" cy="150.5" r="92.5" fill="url(#paint0_linear_637_4815)"/>
</g>
<path d="M239.778 117.283V134.601V156.054H93.7398V147.524C93.5675 133.653 92.7059 106.685 95.5491 106.685C98.3923 106.684 145.176 103.582 145.952 105.65C146.727 107.718 148.536 117.797 153.447 117.799C158.358 117.8 212.81 117.972 239.778 117.283Z" fill="url(#paint1_linear_637_4815)"/>
<g filter="url(#filter1_d_637_4815)">
<path d="M34.0339 69.788C36.3602 68.4956 71.7712 49.627 71.7712 49.627C74.8729 54.8826 81.6449 65.549 83.9195 66.1693C86.1941 66.7897 94.6893 61.6029 98.6526 58.932C108.561 75.7329 128.377 109.903 128.377 112.178C128.377 115.021 75.1314 142.678 71.7712 142.678C69.0831 142.678 45.4929 98.0479 34.0339 75.7329C34.0339 75.7329 31.7076 71.0804 34.0339 69.788Z" fill="url(#paint2_linear_637_4815)"/>
</g>
<g filter="url(#filter2_d_637_4815)">
<path d="M257.606 45.81C259.577 47.2568 288.904 69.5879 288.904 69.5879C285.705 74.192 279.396 83.9344 279.749 86.0712C280.103 88.208 287.69 93.3122 291.439 95.5973C281.211 110.309 260.279 139.952 258.38 140.824C256.006 141.914 212.506 108.061 211.218 105.256C210.187 103.012 238.405 66.2095 252.643 48.0888C252.643 48.0888 255.636 44.3633 257.606 45.81Z" fill="url(#paint3_linear_637_4815)"/>
</g>
<g filter="url(#filter3_d_637_4815)">
<path d="M147.402 22.996C150.054 23.2208 189.97 27.3103 189.97 27.3103C189.613 33.4025 189.284 46.0328 190.826 47.8164C192.368 49.5999 202.312 50.0331 207.091 50.0268C205.944 69.498 203.334 108.912 202.065 110.8C200.479 113.16 140.859 106.417 138.07 104.543C135.839 103.044 141.151 52.8432 144.087 27.9303C144.087 27.9303 144.751 22.7712 147.402 22.996Z" fill="url(#paint4_linear_637_4815)"/>
</g>
<g filter="url(#filter4_d_637_4815)">
<path d="M248.329 133.372H171.562C167.168 133.372 167.426 146.296 162.774 146.555C158.121 146.813 89.3671 146.555 86.0069 146.555C82.6467 146.555 80.3204 149.139 80.5789 153.792C80.8374 158.445 89.6255 216.342 90.1425 218.928C90.6594 221.513 89.6059 223.321 94.7754 223.58C99.9449 223.839 234.888 226.94 236.956 223.58C239.024 220.221 251.948 146.556 252.465 139.834C252.982 133.113 248.329 133.372 248.329 133.372Z" fill="url(#paint5_linear_637_4815)"/>
</g>
<circle cx="165.5" cy="209.5" r="34.5" fill="url(#paint6_linear_637_4815)"/>
<path fill-rule="evenodd" clip-rule="evenodd" d="M167.686 197.843C167.686 196.273 166.413 195 164.843 195C163.273 195 162 196.273 162 197.843V206.314H153.843C152.273 206.314 151 207.587 151 209.157C151 210.727 152.273 212 153.843 212H162V220.157C162 221.727 163.273 223 164.843 223C166.413 223 167.686 221.727 167.686 220.157V212H176.157C177.727 212 179 210.727 179 209.157C179 207.587 177.727 206.314 176.157 206.314H167.686V197.843Z" fill="white"/>
<path d="M187.048 97.113L146.987 93.1617C146.543 93.1179 146.078 93.2664 145.792 93.5435L145.732 93.6013C145.183 94.1321 145.536 94.8421 146.388 94.9216L186.555 98.6682C186.959 98.7058 187.38 98.5701 187.64 98.3186C188.139 97.8356 187.822 97.1893 187.048 97.113Z" fill="#D4DCEB"/>
<path d="M182.058 102.006L146.724 98.5208C146.318 98.4808 145.892 98.6166 145.631 98.87C145.129 99.3554 145.451 100.005 146.23 100.077L181.622 103.379C181.979 103.412 182.35 103.292 182.58 103.07C183.021 102.644 182.741 102.073 182.058 102.006Z" fill="#D4DCEB"/>
<path d="M279.335 86.3091C280.938 88.6627 288.628 93.8446 291.439 95.5993L288.904 69.5898C284.869 72.8698 277.69 82.7247 279.335 86.3091Z" fill="#D4DCEB"/>
<path d="M83.9648 66.6863C87.0213 66.1693 95.6398 60.9165 98.6526 58.932L71.7712 49.627C73.1835 55.1077 79.6715 66.6863 83.9648 66.6863Z" fill="#D4DCEB"/>
<path d="M70.8526 65.2582L46.3945 78.577C46.1043 78.735 45.9238 79.0389 45.9238 79.3693C45.9238 80.0569 46.6621 80.4917 47.2634 80.1583L71.6195 66.6539C71.8727 66.5136 72.0297 66.2469 72.0297 65.9575C72.0297 65.3533 71.3832 64.9692 70.8526 65.2582Z" fill="#D4DCEB"/>
<path d="M66.4295 75.0733L49.4924 84.2677C49.2046 84.424 49.0254 84.7252 49.0254 85.0527C49.0254 85.7378 49.7651 86.1678 50.3605 85.8288L67.1074 76.2924C67.4101 76.12 67.5392 75.7507 67.4098 75.4272C67.2548 75.0397 66.7964 74.8742 66.4295 75.0733Z" fill="#D4DCEB"/>
<path fill-rule="evenodd" clip-rule="evenodd" d="M66.0806 88.3986L82.9562 80.8185C84.785 79.9971 86.8414 79.8326 88.7776 80.3529C91.2281 81.0115 93.2688 82.7073 94.3649 84.9959L99.9099 96.5745C100.39 97.5762 100.596 98.6869 100.508 99.7939C100.336 101.949 99.0705 103.866 97.1556 104.871L77.5286 115.165C76.0973 115.916 74.4828 116.246 72.8717 116.118C69.9191 115.883 67.2977 114.139 65.9403 111.506L61.3205 102.546C60.4817 100.919 60.1141 99.0904 60.2594 97.2657L60.314 96.5789C60.5986 93.0038 62.8091 89.8681 66.0806 88.3986ZM87.6102 95.1907C88.0856 94.5244 87.6351 93.5961 86.8175 93.5574L75.0916 93.0019C74.3078 92.9647 73.7699 93.7801 74.1126 94.4861L79.0203 104.598C79.363 105.304 80.3363 105.386 80.7921 104.747L87.6102 95.1907Z" fill="url(#paint7_linear_637_4815)"/>
<path d="M265.591 73.7324L251.749 63.3607C251.355 63.0656 250.801 63.1203 250.472 63.4868L250.033 63.9761C249.656 64.3969 249.727 65.052 250.186 65.3817L264.346 75.5486C264.839 75.903 265.534 75.7092 265.773 75.1506L265.895 74.866C266.067 74.4633 265.942 73.995 265.591 73.7324Z" fill="#D4DCEB"/>
<path d="M274.065 71.1913L256.106 57.3079C255.708 57.0005 255.14 57.0561 254.809 57.4348L253.936 58.435C253.572 58.8526 253.641 59.4922 254.086 59.8224L272.58 73.5393C273.078 73.9091 273.792 73.7091 274.026 73.1341L274.364 72.3004C274.525 71.9055 274.403 71.452 274.065 71.1913Z" fill="#D4DCEB"/>
<path d="M190.576 48.2709C193.401 49.5466 203.484 49.9937 207.091 50.027L189.97 27.3105C188.085 32.6473 187.012 45.8763 190.576 48.2709Z" fill="#D4DCEB"/>
<path d="M180.488 39.7741L152.759 37.1871C152.43 37.1565 152.111 37.308 151.927 37.5822C151.543 38.1529 151.913 38.9257 152.598 38.9843L180.346 41.3603C180.635 41.385 180.914 41.2513 181.075 41.0111C181.412 40.5096 181.09 39.8302 180.488 39.7741Z" fill="#D4DCEB"/>
<path d="M179.454 44.942L151.725 42.3551C151.396 42.3244 151.077 42.476 150.893 42.7502C150.509 43.3209 150.879 44.0936 151.564 44.1523L179.312 46.5283C179.601 46.553 179.88 46.4193 180.041 46.179C180.378 45.6776 180.056 44.9982 179.454 44.942Z" fill="#D4DCEB"/>
<path d="M176.027 50.0317L151.041 47.6928C150.744 47.6651 150.457 47.8016 150.291 48.0486C149.945 48.5626 150.279 49.2585 150.896 49.3115L175.899 51.4604C176.159 51.4828 176.41 51.3623 176.556 51.1459C176.859 50.6943 176.569 50.0824 176.027 50.0317Z" fill="#D4DCEB"/>
<rect x="149" y="56" width="52" height="33" rx="2.58475" transform="rotate(6.73982 149 56)" fill="#ECF0F9"/>
<path d="M161.593 76.4361C161.795 76.3065 162.06 76.3335 162.232 76.5012L170.38 84.4399C170.731 84.7816 170.454 85.374 169.967 85.3244L152.239 83.5205C151.752 83.4709 151.6 82.8349 152.013 82.5708L161.593 76.4361Z" fill="#D4DCEB"/>
<path fill-rule="evenodd" clip-rule="evenodd" d="M265.036 90.4274L276.476 99.3785L273.469 103.221L262.072 94.241L265.036 90.4274ZM264.018 89.631L255.435 82.9151L252.497 86.6958L261.057 93.4411L264.018 89.631ZM254.417 82.1187L244.266 74.1759L241.345 77.9086L251.482 85.8959L254.417 82.1187ZM240.549 78.9265L236.916 83.5693L247.071 91.5712L250.689 86.9163L240.549 78.9265ZM236.12 84.5872L232.97 88.6121L243.142 96.627L246.278 92.5917L236.12 84.5872ZM232.174 89.63L228.923 93.7851L239.138 101.778L242.349 97.6475L232.174 89.63ZM240.156 102.575L248.739 109.29L251.924 105.193L243.364 98.4473L240.156 102.575ZM249.757 110.087L261.133 118.988L264.298 114.943L252.939 105.993L249.758 110.085L249.757 110.087ZM265.094 113.925L268.244 109.9L256.868 100.937L253.732 104.972L265.094 113.925ZM269.04 108.882L272.673 104.239L261.279 95.2614L257.662 99.9163L269.04 108.882ZM243.044 73.2202C243.572 72.5457 244.547 72.4267 245.221 72.9545L277.432 98.1571C278.106 98.6849 278.225 99.6596 277.697 100.334L262.354 119.943C261.827 120.618 260.852 120.737 260.177 120.209L227.967 95.0065C227.293 94.4787 227.174 93.5039 227.701 92.8294L243.044 73.2202ZM248.086 92.3711L251.704 87.7162L260.264 94.4615L256.646 99.1164L248.086 92.3711ZM244.157 97.4269L247.293 93.3915L255.853 100.137L252.717 104.172L244.157 97.4269Z" fill="#DCE3EF"/>
<path d="M177.516 71.1291C177.735 70.9577 178.05 70.9898 178.229 71.2017L191.068 86.3448C191.369 86.6998 191.084 87.2405 190.621 87.1934L162.157 84.2969C161.694 84.2498 161.524 83.6628 161.89 83.3758L177.516 71.1291Z" fill="white"/>
<circle cx="162" cy="65" r="4" fill="#D4DCEA"/>
<path fill-rule="evenodd" clip-rule="evenodd" d="M161.566 2.11564L156.625 8.37918C156.233 8.87685 155.516 8.97346 155.006 8.59751C154.483 8.21264 154.372 7.47709 154.757 6.95462L159.488 0.531685C159.903 -0.0314684 160.688 -0.167975 161.269 0.222024C161.9 0.64624 162.037 1.51827 161.566 2.11564ZM145.007 8.24047L141.676 0.991457C141.359 0.300111 140.52 0.025369 139.855 0.39486C139.243 0.734547 139.008 1.49554 139.321 2.12116L142.888 9.25649C143.179 9.83691 143.884 10.0722 144.465 9.78196C145.032 9.49849 145.272 8.81644 145.007 8.24047ZM128.085 16.1496L135.974 17.3358C136.726 17.449 137.416 16.8978 137.471 16.139C137.522 15.4414 137.015 14.8274 136.32 14.7463L128.396 13.8206C127.752 13.7453 127.168 14.2068 127.093 14.8513C127.019 15.4809 127.458 16.0553 128.085 16.1496Z" fill="#D6DEEC"/>
<defs>
<filter id="filter0_d_637_4815" x="37.8813" y="25.9491" width="253.237" height="253.237" filterUnits="userSpaceOnUse" color-interpolation-filters="sRGB">
<feFlood flood-opacity="0" result="BackgroundImageFix"/>
<feColorMatrix in="SourceAlpha" type="matrix" values="0 0 0 0 0 0 0 0 0 0 0 0 0 0 0 0 0 0 127 0" result="hardAlpha"/>
<feMorphology radius="13.9576" operator="dilate" in="SourceAlpha" result="effect1_dropShadow_637_4815"/>
<feOffset dy="2.0678"/>
<feGaussianBlur stdDeviation="10.0805"/>
<feComposite in2="hardAlpha" operator="out"/>
<feColorMatrix type="matrix" values="0 0 0 0 0.803922 0 0 0 0 0.835294 0 0 0 0 0.901961 0 0 0 0.23 0"/>
<feBlend mode="normal" in2="BackgroundImageFix" result="effect1_dropShadow_637_4815"/>
<feBlend mode="normal" in="SourceGraphic" in2="effect1_dropShadow_637_4815" result="shape"/>
</filter>
<filter id="filter1_d_637_4815" x="0.432183" y="32.0507" width="138.801" height="136.475" filterUnits="userSpaceOnUse" color-interpolation-filters="sRGB">
<feFlood flood-opacity="0" result="BackgroundImageFix"/>
<feColorMatrix in="SourceAlpha" type="matrix" values="0 0 0 0 0 0 0 0 0 0 0 0 0 0 0 0 0 0 127 0" result="hardAlpha"/>
<feOffset dx="-10.8559" dy="4.1356"/>
<feGaussianBlur stdDeviation="10.8559"/>
<feComposite in2="hardAlpha" operator="out"/>
<feColorMatrix type="matrix" values="0 0 0 0 0.803922 0 0 0 0 0.835294 0 0 0 0 0.901961 0 0 0 0.48 0"/>
<feBlend mode="normal" in2="BackgroundImageFix" result="effect1_dropShadow_637_4815"/>
<feBlend mode="normal" in="SourceGraphic" in2="effect1_dropShadow_637_4815" result="shape"/>
</filter>
<filter id="filter2_d_637_4815" x="202.919" y="32.0359" width="123.673" height="138.797" filterUnits="userSpaceOnUse" color-interpolation-filters="sRGB">
<feFlood flood-opacity="0" result="BackgroundImageFix"/>
<feColorMatrix in="SourceAlpha" type="matrix" values="0 0 0 0 0 0 0 0 0 0 0 0 0 0 0 0 0 0 127 0" result="hardAlpha"/>
<feOffset dx="13.4407" dy="8.27119"/>
<feGaussianBlur stdDeviation="10.8559"/>
<feComposite in2="hardAlpha" operator="out"/>
<feColorMatrix type="matrix" values="0 0 0 0 0.803922 0 0 0 0 0.835294 0 0 0 0 0.901961 0 0 0 0.48 0"/>
<feBlend mode="normal" in2="BackgroundImageFix" result="effect1_dropShadow_637_4815"/>
<feBlend mode="normal" in="SourceGraphic" in2="effect1_dropShadow_637_4815" result="shape"/>
</filter>
<filter id="filter3_d_637_4815" x="103.419" y="10.0645" width="112.978" height="131.73" filterUnits="userSpaceOnUse" color-interpolation-filters="sRGB">
<feFlood flood-opacity="0" result="BackgroundImageFix"/>
<feColorMatrix in="SourceAlpha" type="matrix" values="0 0 0 0 0 0 0 0 0 0 0 0 0 0 0 0 0 0 127 0" result="hardAlpha"/>
<feOffset dx="-12.4068" dy="8.78814"/>
<feGaussianBlur stdDeviation="10.8559"/>
<feComposite in2="hardAlpha" operator="out"/>
<feColorMatrix type="matrix" values="0 0 0 0 0.803922 0 0 0 0 0.835294 0 0 0 0 0.901961 0 0 0 0.32 0"/>
<feBlend mode="normal" in2="BackgroundImageFix" result="effect1_dropShadow_637_4815"/>
<feBlend mode="normal" in="SourceGraphic" in2="effect1_dropShadow_637_4815" result="shape"/>
</filter>
<filter id="filter4_d_637_4815" x="47.9915" y="115.795" width="215.369" height="135.185" filterUnits="userSpaceOnUse" color-interpolation-filters="sRGB">
<feFlood flood-opacity="0" result="BackgroundImageFix"/>
<feColorMatrix in="SourceAlpha" type="matrix" values="0 0 0 0 0 0 0 0 0 0 0 0 0 0 0 0 0 0 127 0" result="hardAlpha"/>
<feOffset dx="-10.8559" dy="4.1356"/>
<feGaussianBlur stdDeviation="10.8559"/>
<feComposite in2="hardAlpha" operator="out"/>
<feColorMatrix type="matrix" values="0 0 0 0 0.803922 0 0 0 0 0.835294 0 0 0 0 0.901961 0 0 0 0.48 0"/>
<feBlend mode="normal" in2="BackgroundImageFix" result="effect1_dropShadow_637_4815"/>
<feBlend mode="normal" in="SourceGraphic" in2="effect1_dropShadow_637_4815" result="shape"/>
</filter>
<linearGradient id="paint0_linear_637_4815" x1="164.5" y1="58" x2="164.5" y2="243" gradientUnits="userSpaceOnUse">
<stop stop-color="#DFE3F1"/>
<stop offset="1" stop-color="#CCD4E5"/>
</linearGradient>
<linearGradient id="paint1_linear_637_4815" x1="160.428" y1="117.088" x2="160.428" y2="144.486" gradientUnits="userSpaceOnUse">
<stop stop-color="#9CA7BD"/>
<stop offset="1" stop-color="#9AA3B7"/>
</linearGradient>
<linearGradient id="paint2_linear_637_4815" x1="61.9492" y1="91.7583" x2="102.53" y2="96.1524" gradientUnits="userSpaceOnUse">
<stop stop-color="white"/>
<stop offset="1" stop-color="#FCFDFD"/>
</linearGradient>
<linearGradient id="paint3_linear_637_4815" x1="269.763" y1="95.1171" x2="212.123" y2="104.164" gradientUnits="userSpaceOnUse">
<stop stop-color="white"/>
<stop offset="1" stop-color="#F7F7F9"/>
</linearGradient>
<linearGradient id="paint4_linear_637_4815" x1="167.771" y1="20.49" x2="186.071" y2="112.82" gradientUnits="userSpaceOnUse">
<stop stop-color="white"/>
<stop offset="1" stop-color="#FAFBFB"/>
</linearGradient>
<linearGradient id="paint5_linear_637_4815" x1="166.532" y1="133.371" x2="166.532" y2="225.133" gradientUnits="userSpaceOnUse">
<stop stop-color="#FCFDFF"/>
<stop offset="1" stop-color="#EDF0F7"/>
</linearGradient>
<linearGradient id="paint6_linear_637_4815" x1="165.5" y1="175" x2="173.282" y2="223.767" gradientUnits="userSpaceOnUse">
<stop stop-color="#B3BDD1"/>
<stop offset="1" stop-color="#959DB0"/>
</linearGradient>
<linearGradient id="paint7_linear_637_4815" x1="81.8858" y1="79.6584" x2="78.945" y2="116.601" gradientUnits="userSpaceOnUse">
<stop stop-color="#D5DDEB"/>
<stop offset="1" stop-color="#D0D9E8"/>
</linearGradient>
</defs>
</svg>
