<svg width="54" height="53" viewBox="0 0 54 53" fill="none" xmlns="http://www.w3.org/2000/svg">
<path d="M49.6666 22.9381L39.0084 12.2799C38.1919 11.4634 37.0665 11 35.897 11H6.83521C5.66472 11 4.54217 11.465 3.71451 12.2926C2.88685 13.1203 2.42188 14.2428 2.42188 15.4133V30.86C2.42188 33.2873 4.40787 35.2733 6.83521 35.2733C6.83521 38.9364 9.79214 41.8933 13.4552 41.8933C17.1183 41.8933 20.0752 38.9364 20.0752 35.2733H33.3152C33.3152 38.9364 36.2721 41.8933 39.9352 41.8933C43.5983 41.8933 46.5552 38.9364 46.5552 35.2733C48.9825 35.2733 50.9685 33.2873 50.9685 30.86V26.0715C50.9685 24.902 50.5051 23.7766 49.6666 22.9381ZM6.83521 22.0333V17.62C6.83521 16.4063 7.82821 15.4133 9.04187 15.4133H15.6619V24.24H9.04187C7.82821 24.24 6.83521 23.247 6.83521 22.0333ZM13.4552 38.0317C12.7237 38.0317 12.0221 37.7411 11.5048 37.2238C10.9875 36.7065 10.6969 36.0049 10.6969 35.2733C10.6969 34.5418 10.9875 33.8402 11.5048 33.3229C12.0221 32.8056 12.7237 32.515 13.4552 32.515C14.1868 32.515 14.8884 32.8056 15.4056 33.3229C15.9229 33.8402 16.2135 34.5418 16.2135 35.2733C16.2135 36.0049 15.9229 36.7065 15.4056 37.2238C14.8884 37.7411 14.1868 38.0317 13.4552 38.0317ZM28.9019 24.24H20.0752V15.4133H28.9019V24.24ZM39.9352 38.0317C39.2037 38.0317 38.5021 37.7411 37.9848 37.2238C37.4675 36.7065 37.1769 36.0049 37.1769 35.2733C37.1769 34.5418 37.4675 33.8402 37.9848 33.3229C38.5021 32.8056 39.2037 32.515 39.9352 32.515C40.6668 32.515 41.3684 32.8056 41.8856 33.3229C42.4029 33.8402 42.6935 34.5418 42.6935 35.2733C42.6935 36.0049 42.4029 36.7065 41.8856 37.2238C41.3684 37.7411 40.6668 38.0317 39.9352 38.0317ZM33.3152 24.24V15.4133H35.5219L44.3485 24.24H33.3152Z" fill="#F8F8F8"/>
</svg>
