<svg width="26" height="26" viewBox="0 0 26 26" fill="none" xmlns="http://www.w3.org/2000/svg">
<path d="M23.595 3.92102C23.7207 3.76247 23.7995 3.57188 23.8225 3.37084C23.8455 3.1698 23.8117 2.96634 23.725 2.78352C23.6372 2.59916 23.499 2.44338 23.3265 2.33412C23.154 2.22487 22.9542 2.16659 22.75 2.16602H3.24996C3.04577 2.16659 2.84589 2.22487 2.67339 2.33412C2.50088 2.44338 2.36276 2.59916 2.27496 2.78352C2.18823 2.96634 2.15444 3.1698 2.17742 3.37084C2.20039 3.57188 2.27922 3.76247 2.40496 3.92102L11.9166 15.816V21.666H5.68746C5.40014 21.666 5.12459 21.7802 4.92143 21.9833C4.71826 22.1865 4.60413 22.462 4.60413 22.7493C4.60413 23.0367 4.71826 23.3122 4.92143 23.5154C5.12459 23.7185 5.40014 23.8327 5.68746 23.8327H20.3125C20.5998 23.8327 20.8753 23.7185 21.0785 23.5154C21.2817 23.3122 21.3958 23.0367 21.3958 22.7493C21.3958 22.462 21.2817 22.1865 21.0785 21.9833C20.8753 21.7802 20.5998 21.666 20.3125 21.666H14.0833V15.816L23.595 3.92102ZM5.50329 4.33268H20.4966L17.8966 7.58268H8.14663L5.50329 4.33268ZM13 13.7035L9.83663 9.74935H16.1633L13 13.7035Z" fill="#6167B1"/>
</svg>
