<svg width="23" height="24" viewBox="0 0 23 24" fill="none" xmlns="http://www.w3.org/2000/svg">
<g clip-path="url(#clip0_8086_7153)">
<path d="M16.5574 9.53232C16.5488 8.00049 17.2127 6.846 18.5533 5.99473C17.8035 4.87168 16.6691 4.254 15.1738 4.13496C13.758 4.01816 12.209 4.99746 11.6418 4.99746C11.0424 4.99746 9.67168 4.17539 8.59316 4.17539C6.36738 4.21133 4.00195 6.03066 4.00195 9.73223C4.00195 10.8261 4.19316 11.9559 4.57559 13.1193C5.08691 14.6512 6.93027 18.4044 8.85312 18.3438C9.85859 18.319 10.5697 17.598 11.8781 17.598C13.1479 17.598 13.8053 18.3438 14.9268 18.3438C16.8668 18.3146 18.534 14.9027 19.0195 13.3664C16.4178 12.0839 16.5574 9.61094 16.5574 9.53232ZM14.2994 2.68174C15.3887 1.32959 15.2898 0.0987305 15.2576 -0.34375C14.2951 -0.285352 13.1822 0.341309 12.5484 1.11172C11.8502 1.93828 11.4398 2.96025 11.5279 4.1125C12.5678 4.19561 13.5174 3.63633 14.2994 2.68174Z" fill="#787878"/>
</g>
<defs>
<clipPath id="clip0_8086_7153">
<rect width="22" height="23" fill="white" transform="translate(0.5 0.5)"/>
</clipPath>
</defs>
</svg>
