<svg width="26" height="26" viewBox="0 0 26 26" fill="none" xmlns="http://www.w3.org/2000/svg">
<path d="M7.58325 13.5417C8.22604 13.5417 8.85439 13.3511 9.38885 12.9939C9.92331 12.6368 10.3399 12.1292 10.5859 11.5354C10.8318 10.9415 10.8962 10.2881 10.7708 9.65762C10.6454 9.02718 10.3359 8.44809 9.88135 7.99357C9.42683 7.53905 8.84773 7.22952 8.21729 7.10411C7.58686 6.97871 6.93339 7.04307 6.33953 7.28906C5.74567 7.53504 5.23809 7.9516 4.88098 8.48606C4.52386 9.02052 4.33325 9.64888 4.33325 10.2917C4.33325 11.1536 4.67566 11.9803 5.28515 12.5898C5.89465 13.1993 6.7213 13.5417 7.58325 13.5417ZM7.58325 9.20833C7.79751 9.20833 8.00697 9.27187 8.18512 9.39091C8.36327 9.50995 8.50213 9.67914 8.58412 9.87709C8.66612 10.075 8.68757 10.2929 8.64577 10.503C8.60397 10.7132 8.50079 10.9062 8.34928 11.0577C8.19778 11.2092 8.00475 11.3124 7.7946 11.3542C7.58445 11.396 7.36663 11.3745 7.16868 11.2925C6.97072 11.2105 6.80153 11.0717 6.68249 10.8935C6.56345 10.7154 6.49992 10.5059 6.49992 10.2917C6.49992 10.0043 6.61406 9.7288 6.81722 9.52563C7.02038 9.32247 7.29593 9.20833 7.58325 9.20833ZM21.6666 7.04167H12.9999C12.7126 7.04167 12.437 7.1558 12.2339 7.35897C12.0307 7.56213 11.9166 7.83768 11.9166 8.125V14.625H3.24992V5.95833C3.24992 5.67102 3.13578 5.39547 2.93262 5.1923C2.72945 4.98914 2.4539 4.875 2.16659 4.875C1.87927 4.875 1.60372 4.98914 1.40055 5.1923C1.19739 5.39547 1.08325 5.67102 1.08325 5.95833V20.0417C1.08325 20.329 1.19739 20.6045 1.40055 20.8077C1.60372 21.0109 1.87927 21.125 2.16659 21.125C2.4539 21.125 2.72945 21.0109 2.93262 20.8077C3.13578 20.6045 3.24992 20.329 3.24992 20.0417V16.7917H22.7499V20.0417C22.7499 20.329 22.8641 20.6045 23.0672 20.8077C23.2704 21.0109 23.5459 21.125 23.8333 21.125C24.1206 21.125 24.3961 21.0109 24.5993 20.8077C24.8024 20.6045 24.9166 20.329 24.9166 20.0417V10.2917C24.9166 9.42971 24.5742 8.60306 23.9647 7.99357C23.3552 7.38408 22.5285 7.04167 21.6666 7.04167ZM22.7499 14.625H14.0833V9.20833H21.6666C21.9539 9.20833 22.2295 9.32247 22.4326 9.52563C22.6358 9.7288 22.7499 10.0043 22.7499 10.2917V14.625Z" fill="#6167B1"/>
</svg>
