<svg width="49" height="48" viewBox="0 0 49 48" fill="none" xmlns="http://www.w3.org/2000/svg">
<path d="M39.64 10.6573C39.2415 9.306 38.4144 8.12094 37.2834 7.28087C36.1524 6.4408 34.779 5.99128 33.3702 6.00013C31.7374 6.00159 30.1643 6.61373 28.96 7.71624C27.7557 8.81875 27.0073 10.3319 26.862 11.9581H22.8404C22.6932 10.3302 21.9423 8.81612 20.7354 7.71363C19.5286 6.61114 17.953 5.99993 16.3184 6.00013C14.9115 5.99322 13.5404 6.44369 12.4117 7.28366C11.283 8.12364 10.4578 9.30763 10.0605 10.6573L5.07365 27.2761C5.01902 27.4612 4.99093 27.6531 4.99023 27.8461V29.8321C4.99339 32.4651 6.04087 34.9893 7.90285 36.8509C9.76483 38.7125 12.2892 39.7595 14.9222 39.7621C16.852 39.7588 18.739 39.1937 20.3529 38.1356C21.9667 37.0776 23.2376 35.5725 24.0102 33.8041H25.6903C26.4629 35.5725 27.7337 37.0776 29.3476 38.1356C30.9615 39.1937 32.8485 39.7588 34.7782 39.7621C37.4116 39.7595 39.9363 38.7123 41.7983 36.8502C43.6604 34.9882 44.7076 32.4635 44.7102 29.8301V27.8461C44.7102 27.6515 44.6804 27.4608 44.6268 27.2761L39.64 10.6573ZM14.9222 35.7901C13.3425 35.788 11.8281 35.1597 10.7109 34.0429C9.59369 32.926 8.96486 31.4118 8.96223 29.8321C8.96223 29.6812 8.996 29.5402 9.00593 29.3912C9.11459 27.8954 9.78433 26.4958 10.881 25.4727C11.9777 24.4497 13.4204 23.8787 14.9202 23.8741C16.5004 23.8741 18.0158 24.5018 19.1332 25.6192C20.2505 26.7365 20.8782 28.252 20.8782 29.8321V29.85C20.8714 31.4261 20.2412 32.9354 19.1253 34.0484C18.0093 35.1614 16.4983 35.7875 14.9222 35.7901ZM34.7782 35.7901C33.2022 35.7875 31.6911 35.1614 30.5752 34.0484C29.4593 32.9354 28.8291 31.4261 28.8222 29.85V29.8321C28.8221 29.0497 28.9761 28.2749 29.2754 27.552C29.5747 26.8291 30.0134 26.1722 30.5666 25.6189C31.6837 24.5014 33.1991 23.8734 34.7792 23.8731C36.3594 23.8729 37.8749 24.5003 38.9925 25.6175C40.11 26.7346 40.738 28.25 40.7382 29.8301C40.7361 31.4102 40.1075 32.9249 38.9903 34.0422C37.873 35.1594 36.3583 35.788 34.7782 35.7901Z" fill="#F8F8F8"/>
</svg>
