<svg width="24" height="24" viewBox="0 0 24 24" fill="none" xmlns="http://www.w3.org/2000/svg">
<path d="M2.50015 8.86061L11.5002 14.0606C11.6522 14.1484 11.8246 14.1946 12.0002 14.1946C12.1757 14.1946 12.3481 14.1484 12.5002 14.0606L21.5002 8.86061C21.6513 8.77336 21.777 8.64807 21.8647 8.4972C21.9524 8.34633 21.9991 8.17513 22.0002 8.00061C22.0009 7.8244 21.955 7.65114 21.8672 7.49836C21.7794 7.34558 21.6528 7.21872 21.5002 7.13061L12.5002 1.94062C12.3481 1.85285 12.1757 1.80664 12.0002 1.80664C11.8246 1.80664 11.6522 1.85285 11.5002 1.94062L2.50015 7.13061C2.34755 7.21872 2.22093 7.34558 2.13313 7.49836C2.04533 7.65114 1.99945 7.8244 2.00015 8.00061C2.00121 8.17513 2.04791 8.34633 2.13563 8.4972C2.22334 8.64807 2.34901 8.77336 2.50015 8.86061ZM12.0002 4.00061L19.0002 8.00061L12.0002 12.0006L5.00015 8.00061L12.0002 4.00061ZM20.5002 11.1706L12.0002 16.0006L3.50015 11.1306C3.38602 11.0645 3.25993 11.0216 3.12915 11.0044C2.99837 10.9872 2.86549 10.9961 2.73815 11.0305C2.61081 11.0649 2.49153 11.1241 2.38718 11.2048C2.28284 11.2855 2.19548 11.386 2.13015 11.5006C1.99978 11.7302 1.96551 12.0021 2.03483 12.2569C2.10415 12.5117 2.27142 12.7287 2.50015 12.8606L11.5002 18.0606C11.6522 18.1484 11.8246 18.1946 12.0002 18.1946C12.1757 18.1946 12.3481 18.1484 12.5002 18.0606L21.5002 12.8606C21.7289 12.7287 21.8962 12.5117 21.9655 12.2569C22.0348 12.0021 22.0005 11.7302 21.8702 11.5006C21.8048 11.386 21.7175 11.2855 21.6131 11.2048C21.5088 11.1241 21.3895 11.0649 21.2622 11.0305C21.1348 10.9961 21.0019 10.9872 20.8711 11.0044C20.7404 11.0216 20.6143 11.0645 20.5002 11.1306V11.1706ZM20.5002 15.1706L12.0002 20.0006L3.50015 15.1306C3.38602 15.0645 3.25993 15.0216 3.12915 15.0044C2.99837 14.9872 2.86549 14.9961 2.73815 15.0305C2.61081 15.0649 2.49153 15.1241 2.38718 15.2048C2.28284 15.2855 2.19548 15.386 2.13015 15.5006C1.99978 15.7302 1.96551 16.0021 2.03483 16.2569C2.10415 16.5117 2.27142 16.7287 2.50015 16.8606L11.5002 22.0606C11.6522 22.1484 11.8246 22.1946 12.0002 22.1946C12.1757 22.1946 12.3481 22.1484 12.5002 22.0606L21.5002 16.8606C21.7289 16.7287 21.8962 16.5117 21.9655 16.2569C22.0348 16.0021 22.0005 15.7302 21.8702 15.5006C21.8048 15.386 21.7175 15.2855 21.6131 15.2048C21.5088 15.1241 21.3895 15.0649 21.2622 15.0305C21.1348 14.9961 21.0019 14.9872 20.8711 15.0044C20.7404 15.0216 20.6143 15.0645 20.5002 15.1306V15.1706Z" fill="#3C3C3C"/>
</svg>
