<svg width="16" height="16" viewBox="0 0 16 16" fill="none" xmlns="http://www.w3.org/2000/svg">
<path fill-rule="evenodd" clip-rule="evenodd" d="M3.33325 3.33268C2.96506 3.33268 2.66659 3.63116 2.66659 3.99935V13.3327C2.66659 13.7009 2.96506 13.9993 3.33325 13.9993H12.6666C13.0348 13.9993 13.3333 13.7009 13.3333 13.3327V3.99935C13.3333 3.63116 13.0348 3.33268 12.6666 3.33268H3.33325ZM1.33325 3.99935C1.33325 2.89478 2.22868 1.99935 3.33325 1.99935H12.6666C13.7712 1.99935 14.6666 2.89478 14.6666 3.99935V13.3327C14.6666 14.4373 13.7712 15.3327 12.6666 15.3327H3.33325C2.22868 15.3327 1.33325 14.4373 1.33325 13.3327V3.99935Z" fill="#94A3B8"/>
<path fill-rule="evenodd" clip-rule="evenodd" d="M10.6666 0.666016C11.0348 0.666016 11.3333 0.964492 11.3333 1.33268V3.99935C11.3333 4.36754 11.0348 4.66602 10.6666 4.66602C10.2984 4.66602 9.99992 4.36754 9.99992 3.99935V1.33268C9.99992 0.964492 10.2984 0.666016 10.6666 0.666016Z" fill="#94A3B8"/>
<path fill-rule="evenodd" clip-rule="evenodd" d="M5.33325 0.666016C5.70144 0.666016 5.99992 0.964492 5.99992 1.33268V3.99935C5.99992 4.36754 5.70144 4.66602 5.33325 4.66602C4.96506 4.66602 4.66659 4.36754 4.66659 3.99935V1.33268C4.66659 0.964492 4.96506 0.666016 5.33325 0.666016Z" fill="#94A3B8"/>
<path fill-rule="evenodd" clip-rule="evenodd" d="M1.33325 6.66602C1.33325 6.29783 1.63173 5.99935 1.99992 5.99935H13.9999C14.3681 5.99935 14.6666 6.29783 14.6666 6.66602C14.6666 7.0342 14.3681 7.33268 13.9999 7.33268H1.99992C1.63173 7.33268 1.33325 7.0342 1.33325 6.66602Z" fill="#94A3B8"/>
</svg>
