<svg width="10" height="10" viewBox="0 0 10 10" fill="none" xmlns="http://www.w3.org/2000/svg">
<path fill-rule="evenodd" clip-rule="evenodd" d="M9.47157 0.528758C9.73192 0.789108 9.73192 1.21122 9.47157 1.47157L1.47157 9.47157C1.21122 9.73192 0.789108 9.73192 0.528758 9.47157C0.268409 9.21122 0.268409 8.78911 0.528758 8.52876L8.52876 0.528758C8.78911 0.268409 9.21122 0.268409 9.47157 0.528758Z" fill="#475569"/>
<path fill-rule="evenodd" clip-rule="evenodd" d="M0.528758 0.528758C0.789108 0.268409 1.21122 0.268409 1.47157 0.528758L9.47157 8.52876C9.73192 8.78911 9.73192 9.21122 9.47157 9.47157C9.21122 9.73192 8.78911 9.73192 8.52876 9.47157L0.528758 1.47157C0.268409 1.21122 0.268409 0.789108 0.528758 0.528758Z" fill="#475569"/>
</svg>
