<svg width="16" height="16" viewBox="0 0 16 16" fill="none" xmlns="http://www.w3.org/2000/svg">
<path d="M12.6827 10.3815L12.6834 10.4381C12.6846 11.2222 12.3232 11.978 11.6708 12.5556L11.6731 12.5532C10.9934 13.1614 10.0743 13.5583 9.07367 13.6756L9.05019 13.6781V15.1304C9.05019 15.1978 9.01723 15.2625 8.95857 15.3101C8.89991 15.3578 8.82034 15.3846 8.73738 15.3846H8.72451H8.72526H7.35665C7.27078 15.3838 7.1887 15.3557 7.12798 15.3064C7.06726 15.257 7.03271 15.1903 7.03173 15.1206V13.6781C6.57531 13.6286 6.12684 13.539 5.69416 13.411L5.73885 13.4227C5.09255 13.2471 4.48613 12.9864 3.94382 12.651L3.95897 12.6603C3.79332 12.5629 3.63429 12.4584 3.48257 12.347L3.48787 12.3507C3.40354 12.2851 3.34447 12.2359 3.31064 12.203C3.25588 12.1588 3.22355 12.0995 3.22004 12.0368C3.21654 11.9741 3.24211 11.9127 3.2917 11.8646L3.29094 11.8652L4.33539 10.7526C4.36314 10.7235 4.39828 10.6997 4.43842 10.6827C4.47855 10.6657 4.52272 10.656 4.56791 10.6541H4.56867C4.61359 10.6474 4.6599 10.6508 4.70261 10.6639C4.74533 10.6771 4.78282 10.6994 4.81104 10.7286L4.8118 10.7292L4.83149 10.7452C5.5163 11.2546 6.35441 11.6083 7.26122 11.7704L7.29606 11.776C7.52176 11.8178 7.78079 11.8418 8.04664 11.8418L8.0936 11.8424C8.61696 11.8424 9.10169 11.7095 9.50084 11.483L9.49251 11.4873C9.69383 11.3768 9.8569 11.2261 9.96616 11.0497C10.0754 10.8734 10.1272 10.6772 10.1166 10.48V10.4824C10.1166 10.3206 10.0598 10.1698 9.96209 10.0424L9.96436 10.0461C9.87204 9.91905 9.75806 9.80324 9.62581 9.70211L9.62505 9.7015C9.44899 9.58151 9.25541 9.47962 9.04867 9.39811L9.03201 9.39196C8.76137 9.27955 8.5392 9.19155 8.3655 9.12796C8.1918 9.06437 7.92141 8.97514 7.55433 8.86026C7.29076 8.77247 7.08272 8.70375 6.93023 8.65411C6.77775 8.60447 6.56971 8.53165 6.30614 8.43565C6.04257 8.33965 5.83125 8.25452 5.6722 8.18026C5.51315 8.10601 5.32203 8.00857 5.09885 7.88796C4.90334 7.7856 4.72046 7.66813 4.55277 7.53719L4.55352 7.5378C4.40133 7.41268 4.25723 7.28122 4.12181 7.14396L4.11196 7.13411C3.96853 6.99285 3.84953 6.83632 3.75826 6.66888L3.7522 6.65596C3.66423 6.48599 3.59454 6.31015 3.54392 6.13042L3.53861 6.10826C3.48067 5.90195 3.4517 5.69096 3.45227 5.47934V5.46457V5.44611C3.45227 4.67688 3.83173 3.97903 4.44749 3.47073L4.44673 3.47134C5.13309 2.89158 6.03001 2.50574 7.00597 2.37042L7.03324 2.36734V0.881188V0.878726C7.03324 0.806726 7.07035 0.741495 7.12943 0.695341C7.15863 0.670628 7.19367 0.650965 7.23246 0.637535C7.27124 0.624104 7.31297 0.617183 7.35513 0.617188H8.7389C8.91158 0.617188 9.0517 0.731034 9.0517 0.871341V0.881803V0.881188V2.33165C9.46827 2.36734 9.84848 2.43442 10.2128 2.53042L10.1726 2.52119C10.5203 2.60734 10.8126 2.7015 11.0936 2.81103L11.0543 2.7975C11.3027 2.8978 11.514 3.00057 11.714 3.11503L11.6988 3.10642C11.9008 3.22211 12.0326 3.3017 12.0942 3.34519C12.1558 3.38867 12.2065 3.42703 12.2464 3.46026C12.3009 3.49837 12.3361 3.55149 12.3453 3.60941C12.3546 3.66734 12.3371 3.72599 12.2964 3.77411L12.2971 3.7735L11.4776 4.97719C11.4572 5.01419 11.4248 5.04598 11.3838 5.06917C11.3429 5.09237 11.2949 5.10609 11.2451 5.10888H11.2444C11.1963 5.11701 11.1465 5.11602 11.099 5.10598C11.0514 5.09595 11.0073 5.07715 10.9702 5.05103H10.9709C10.9507 5.03462 10.9018 5.0018 10.824 4.95257C10.7463 4.90334 10.6145 4.83052 10.4286 4.73411C10.2484 4.64022 10.0609 4.55574 9.86742 4.48119L9.83561 4.47011C9.60247 4.38301 9.36013 4.31319 9.11154 4.2615L9.07973 4.25596C8.79739 4.19316 8.50599 4.16129 8.21326 4.16119H8.21251C7.6516 4.14032 7.09725 4.26629 6.63106 4.52057L6.64091 4.51565C6.38306 4.65485 6.19116 4.86118 6.09674 5.10073C6.00232 5.34027 6.01099 5.59879 6.12134 5.8338L6.11831 5.82642C6.18799 5.9618 6.28948 6.07626 6.41672 6.16796L6.41823 6.16857C6.54018 6.2615 6.67045 6.35073 6.80678 6.4338L6.8189 6.44057C6.98174 6.53165 7.16881 6.61719 7.36498 6.68857L7.3877 6.69596C7.64118 6.79196 7.84567 6.86621 8.00119 6.91873C8.15671 6.97124 8.39352 7.04673 8.71163 7.14519C9.07013 7.25514 9.34406 7.3417 9.53341 7.40488C9.72276 7.46806 9.97976 7.56426 10.3044 7.6935C10.5779 7.79785 10.8415 7.91859 11.0929 8.05473L11.0709 8.04365C11.3057 8.17903 11.5102 8.31442 11.7049 8.45903L11.7003 8.45534C11.9101 8.60426 12.0889 8.77657 12.2313 8.96919L12.2381 8.97903C12.3638 9.15934 12.4721 9.36919 12.5509 9.58888L12.5577 9.6098C12.6402 9.83442 12.6872 10.0929 12.6872 10.36V10.3858V10.3846L12.6827 10.3815Z" fill="#94A3B8"/>
</svg>
