<svg width="15" height="26" viewBox="0 0 15 26" fill="none" xmlns="http://www.w3.org/2000/svg">
<path d="M14.5348 16.82C14.5348 13.43 11.7448 12.02 9.04477 11.18L7.09477 10.58C5.47477 10.1 5.35477 9.32 5.35477 8.93C5.35477 7.94 6.13477 7.19 7.36477 7.19C8.62477 7.19 9.34477 8 9.31477 9.26H13.9648C14.0248 6.05 11.8348 3.8 8.53477 3.38V0.409999H6.28477V3.38C2.98477 3.8 0.644766 6.02 0.644766 9.02C0.644766 10.79 1.45477 13.37 5.71477 14.57L7.93477 15.26C9.52477 15.77 9.82477 16.49 9.82477 17.09C9.82477 18.11 9.04477 18.86 7.63477 18.86C6.04477 18.86 5.14477 18.08 5.14477 16.67H0.494766C0.494766 19.85 2.77477 22.16 6.28477 22.58V25.46L8.53477 25.49V22.58C11.6548 22.25 14.5348 20.45 14.5348 16.82Z" fill="#3C3C3C"/>
</svg>
