<svg width="26" height="26" viewBox="0 0 26 26" fill="none" xmlns="http://www.w3.org/2000/svg">
<path d="M13.3249 13.2377C13.903 12.7373 14.3666 12.1185 14.6844 11.4231C15.0021 10.7278 15.1666 9.9722 15.1666 9.20768C15.1666 7.77109 14.5959 6.39334 13.5801 5.37752C12.5643 4.3617 11.1865 3.79102 9.74992 3.79102C8.31333 3.79102 6.93558 4.3617 5.91976 5.37752C4.90393 6.39334 4.33325 7.77109 4.33325 9.20768C4.33324 9.9722 4.4977 10.7278 4.81547 11.4231C5.13324 12.1185 5.59688 12.7373 6.17492 13.2377C4.6584 13.9244 3.37176 15.0333 2.46881 16.4319C1.56587 17.8305 1.08485 19.4596 1.08325 21.1244C1.08325 21.4117 1.19739 21.6872 1.40055 21.8904C1.60372 22.0935 1.87927 22.2077 2.16659 22.2077C2.4539 22.2077 2.72945 22.0935 2.93262 21.8904C3.13578 21.6872 3.24992 21.4117 3.24992 21.1244C3.24992 19.4004 3.93474 17.7471 5.15372 16.5282C6.37271 15.3092 8.02601 14.6244 9.74992 14.6244C11.4738 14.6244 13.1271 15.3092 14.3461 16.5282C15.5651 17.7471 16.2499 19.4004 16.2499 21.1244C16.2499 21.4117 16.3641 21.6872 16.5672 21.8904C16.7704 22.0935 17.0459 22.2077 17.3333 22.2077C17.6206 22.2077 17.8961 22.0935 18.0993 21.8904C18.3024 21.6872 18.4166 21.4117 18.4166 21.1244C18.415 19.4596 17.934 17.8305 17.031 16.4319C16.1281 15.0333 14.8414 13.9244 13.3249 13.2377ZM9.74992 12.4577C9.10713 12.4577 8.47877 12.2671 7.94431 11.91C7.40985 11.5528 6.99329 11.0453 6.74731 10.4514C6.50133 9.85754 6.43696 9.20408 6.56237 8.57364C6.68777 7.9432 6.9973 7.36411 7.45182 6.90959C7.90634 6.45507 8.48544 6.14553 9.11587 6.02013C9.74631 5.89473 10.3998 5.95909 10.9936 6.20507C11.5875 6.45106 12.0951 6.86762 12.4522 7.40208C12.8093 7.93654 12.9999 8.56489 12.9999 9.20768C12.9999 10.0696 12.6575 10.8963 12.048 11.5058C11.4385 12.1153 10.6119 12.4577 9.74992 12.4577ZM20.3016 12.8043C20.9949 12.0236 21.4478 11.0592 21.6057 10.0271C21.7636 8.99494 21.6199 7.93918 21.1918 6.98685C20.7637 6.03452 20.0695 5.22621 19.1928 4.65922C18.316 4.09224 17.294 3.79074 16.2499 3.79102C15.9626 3.79102 15.687 3.90515 15.4839 4.10832C15.2807 4.31148 15.1666 4.58703 15.1666 4.87435C15.1666 5.16167 15.2807 5.43722 15.4839 5.64038C15.687 5.84355 15.9626 5.95768 16.2499 5.95768C17.1119 5.95768 17.9385 6.30009 18.548 6.90959C19.1575 7.51908 19.4999 8.34573 19.4999 9.20768C19.4984 9.77669 19.3475 10.3353 19.0623 10.8277C18.7771 11.3201 18.3677 11.729 17.8749 12.0135C17.7143 12.1062 17.5802 12.2385 17.4853 12.3978C17.3905 12.5572 17.3381 12.7382 17.3333 12.9235C17.3287 13.1074 17.3711 13.2895 17.4564 13.4525C17.5417 13.6155 17.6671 13.7541 17.8208 13.8552L18.2433 14.1369L18.3841 14.2127C19.6899 14.832 20.7916 15.8117 21.5593 17.0362C22.327 18.2607 22.7288 19.6791 22.7174 21.1244C22.7174 21.4117 22.8316 21.6872 23.0347 21.8904C23.2379 22.0935 23.5134 22.2077 23.8007 22.2077C24.0881 22.2077 24.3636 22.0935 24.5668 21.8904C24.7699 21.6872 24.8841 21.4117 24.8841 21.1244C24.8929 19.4619 24.4766 17.8248 23.6745 16.3686C22.8725 14.9124 21.7114 13.6854 20.3016 12.8043Z" fill="#6167B1"/>
</svg>
