<svg width="84" height="84" viewBox="0 0 84 84" fill="none" xmlns="http://www.w3.org/2000/svg">
<path d="M42 0C53.1391 0 63.822 4.42499 71.6985 12.3015C79.575 20.178 84 30.8609 84 42C84 53.1391 79.575 63.822 71.6985 71.6985C63.822 79.575 53.1391 84 42 84C30.8609 84 20.178 79.575 12.3015 71.6985C4.42499 63.822 0 53.1391 0 42C0 30.8609 4.42499 20.178 12.3015 12.3015C20.178 4.42499 30.8609 0 42 0ZM42 78C51.5478 78 60.7045 74.2072 67.4558 67.4558C74.2072 60.7045 78 51.5478 78 42C78 32.4522 74.2072 23.2955 67.4558 16.5442C60.7045 9.79285 51.5478 6 42 6C32.4522 6 23.2955 9.79285 16.5442 16.5442C9.79285 23.2955 6 32.4522 6 42C6 51.5478 9.79285 60.7045 16.5442 67.4558C23.2955 74.2072 32.4522 78 42 78ZM46.5 61.5C46.5 62.6935 46.0259 63.8381 45.182 64.682C44.3381 65.5259 43.1935 66 42 66C40.8065 66 39.6619 65.5259 38.818 64.682C37.9741 63.8381 37.5 62.6935 37.5 61.5C37.5 60.3065 37.9741 59.1619 38.818 58.318C39.6619 57.4741 40.8065 57 42 57C43.1935 57 44.3381 57.4741 45.182 58.318C46.0259 59.1619 46.5 60.3065 46.5 61.5ZM42 18C42.7957 18 43.5587 18.3161 44.1213 18.8787C44.6839 19.4413 45 20.2044 45 21V48C45 48.7957 44.6839 49.5587 44.1213 50.1213C43.5587 50.6839 42.7957 51 42 51C41.2043 51 40.4413 50.6839 39.8787 50.1213C39.3161 49.5587 39 48.7957 39 48V21C39 20.2044 39.3161 19.4413 39.8787 18.8787C40.4413 18.3161 41.2043 18 42 18Z" fill="#6167B1"/>
</svg>
