<svg width="41" height="41" viewBox="0 0 41 41" fill="none" xmlns="http://www.w3.org/2000/svg">
<path d="M30.7067 38.7304H33.4794C34.8825 38.7304 36.035 37.6614 36.202 36.2918L38.9581 8.76481H30.6064V2H27.3159V8.76481H19.0144L19.5155 12.6734C22.3717 13.4584 25.0443 14.8782 26.6478 16.4483C29.053 18.8202 30.7067 21.2755 30.7067 25.2843V38.7304ZM2.21094 37.0601V35.4065H27.3159V37.0601C27.3159 37.9788 26.5643 38.7304 25.6289 38.7304H3.89796C2.96258 38.7304 2.21094 37.9788 2.21094 37.0601ZM27.3159 25.3678C27.3159 12.0052 2.21094 12.0052 2.21094 25.3678H27.3159ZM2.24434 28.7252H27.2992V32.0658H2.24434V28.7252Z" fill="#F8F8F8"/>
</svg>
