<svg width="53" height="53" viewBox="0 0 53 53" fill="none" xmlns="http://www.w3.org/2000/svg">
<path d="M17.6897 45.0859L17.3316 46.2319L18.5322 46.2319L22.8847 46.2319L23.3739 46.2319L23.6332 45.817L34.2553 28.8217L45.7356 28.8217C48.0294 28.8217 49.8827 26.9684 49.8827 24.6746C49.8827 22.3808 48.0294 20.5275 45.7356 20.5275L34.2553 20.5275L23.6332 3.53219L23.3739 3.11733L22.8847 3.11733L18.5322 3.11733L17.3316 3.11733L17.6897 4.26328L22.7723 20.5275L12.4447 20.5275L9.44506 16.528L9.18026 16.175L8.73893 16.175L5.47452 16.175L4.30434 16.175L4.62581 17.3001L6.7328 24.6746L4.62581 32.0491L4.30434 33.1742L5.47452 33.1742L8.73893 33.1742L9.18026 33.1742L9.44506 32.8212L12.4447 28.8217L22.7723 28.8217L17.6897 45.0859Z" fill="#F4F4F4" stroke="#F4F4F4" stroke-width="1.76533"/>
</svg>
