<svg width="26" height="26" viewBox="0 0 26 26" fill="none" xmlns="http://www.w3.org/2000/svg">
<path d="M16.8241 15.308C16.7234 15.2064 16.6036 15.1258 16.4716 15.0708C16.3396 15.0158 16.198 14.9875 16.0549 14.9875C15.9119 14.9875 15.7703 15.0158 15.6383 15.0708C15.5063 15.1258 15.3865 15.2064 15.2858 15.308C15.084 15.5109 14.9708 15.7855 14.9708 16.0717C14.9708 16.3579 15.084 16.6325 15.2858 16.8355L21.9808 23.5305C22.0815 23.632 22.2013 23.7126 22.3333 23.7676C22.4653 23.8226 22.6069 23.8509 22.7499 23.8509C22.893 23.8509 23.0346 23.8226 23.1666 23.7676C23.2986 23.7126 23.4184 23.632 23.5191 23.5305C23.7209 23.3275 23.8341 23.0529 23.8341 22.7667C23.8341 22.4805 23.7209 22.2059 23.5191 22.003L16.8241 15.308ZM18.1566 12.6105C19.0183 12.6097 19.8444 12.2668 20.4533 11.6571L23.5191 8.5913C23.7209 8.38833 23.8341 8.11375 23.8341 7.82755C23.8341 7.54135 23.7209 7.26678 23.5191 7.0638C23.4184 6.96226 23.2986 6.88167 23.1666 6.82667C23.0346 6.77167 22.893 6.74335 22.7499 6.74335C22.6069 6.74335 22.4653 6.77167 22.3333 6.82667C22.2013 6.88167 22.0815 6.96226 21.9808 7.0638L18.9149 10.1296C18.712 10.3314 18.4374 10.4447 18.1512 10.4447C17.865 10.4447 17.5904 10.3314 17.3874 10.1296L21.2224 6.29464C21.4242 6.09166 21.5375 5.81709 21.5375 5.53089C21.5375 5.24468 21.4242 4.97011 21.2224 4.76714C21.1217 4.6656 21.0019 4.585 20.8699 4.53C20.7379 4.475 20.5963 4.44669 20.4533 4.44669C20.3103 4.44669 20.1687 4.475 20.0367 4.53C19.9046 4.585 19.7848 4.6656 19.6841 4.76714L15.8599 8.5913C15.6582 8.38833 15.5449 8.11375 15.5449 7.82755C15.5449 7.54135 15.6582 7.26678 15.8599 7.0638L18.9149 3.99797C19.0283 3.90085 19.1205 3.78134 19.1855 3.64694C19.2505 3.51253 19.287 3.36614 19.2928 3.21694C19.2986 3.06775 19.2734 2.91897 19.219 2.77995C19.1645 2.64093 19.0819 2.51467 18.9763 2.4091C18.8707 2.30352 18.7445 2.22091 18.6055 2.16645C18.4664 2.11198 18.3177 2.08684 18.1685 2.0926C18.0193 2.09837 17.8729 2.13491 17.7385 2.19993C17.6041 2.26496 17.4846 2.35706 17.3874 2.47047L14.3216 5.5363C13.713 6.14568 13.3711 6.97172 13.3711 7.83297C13.3711 8.69422 13.713 9.52026 14.3216 10.1296L12.9999 11.473L11.3099 9.80464C11.7896 8.93901 11.971 7.93956 11.8261 6.96059C11.6812 5.98162 11.2181 5.07756 10.5083 4.38797C8.94828 2.82797 4.90744 1.0838 3.00078 3.02297C1.09411 4.96214 2.81661 8.95964 4.33328 10.5305C5.18026 11.3805 6.31901 11.8763 7.51828 11.9171H7.66994C8.40241 11.9067 9.11943 11.7051 9.74994 11.3321L11.4508 13.0005L2.48078 21.9705C2.38048 22.0715 2.30106 22.1912 2.24705 22.323C2.19304 22.4547 2.16551 22.5957 2.16601 22.738C2.16651 22.8804 2.19505 23.0212 2.24998 23.1526C2.30492 23.2839 2.38519 23.4031 2.48619 23.5034C2.5872 23.6037 2.70698 23.6831 2.83868 23.7371C2.97038 23.7911 3.11143 23.8187 3.25377 23.8182C3.39612 23.8176 3.53697 23.7891 3.66829 23.7342C3.7996 23.6792 3.91881 23.599 4.01911 23.498L13.7691 13.748L15.8491 11.668C16.1528 11.9692 16.5129 12.2075 16.9089 12.3692C17.3049 12.531 17.7289 12.6129 18.1566 12.6105ZM9.13244 9.1438C8.92949 9.34556 8.68727 9.5035 8.4208 9.60786C8.15433 9.71221 7.86927 9.76075 7.58328 9.75047C6.94997 9.7232 6.35192 9.45136 5.91494 8.99214C4.74494 7.82214 3.92161 5.16797 4.53911 4.55047C4.74421 4.39575 4.99763 4.31896 5.25411 4.3338C6.63677 4.44401 7.94547 5.00325 8.98078 5.9263C9.42307 6.3355 9.68684 6.90212 9.71522 7.50401C9.74359 8.10589 9.53429 8.69481 9.13244 9.1438Z" fill="#6167B1"/>
</svg>
