<svg width="26" height="26" viewBox="0 0 26 26" fill="none" xmlns="http://www.w3.org/2000/svg">
<path d="M10.8334 18.416H11.9167V19.4993C11.9167 19.7867 12.0309 20.0622 12.234 20.2654C12.4372 20.4685 12.7128 20.5827 13.0001 20.5827C13.2874 20.5827 13.5629 20.4685 13.7661 20.2654C13.9693 20.0622 14.0834 19.7867 14.0834 19.4993V18.416H15.1667C15.4541 18.416 15.7296 18.3019 15.9328 18.0987C16.1359 17.8956 16.2501 17.62 16.2501 17.3327C16.2501 17.0454 16.1359 16.7698 15.9328 16.5667C15.7296 16.3635 15.4541 16.2493 15.1667 16.2493H14.0834V15.166C14.0834 14.8787 13.9693 14.6031 13.7661 14.4C13.5629 14.1968 13.2874 14.0827 13.0001 14.0827C12.7128 14.0827 12.4372 14.1968 12.234 14.4C12.0309 14.6031 11.9167 14.8787 11.9167 15.166V16.2493H10.8334C10.5461 16.2493 10.2705 16.3635 10.0674 16.5667C9.86422 16.7698 9.75008 17.0454 9.75008 17.3327C9.75008 17.62 9.86422 17.8956 10.0674 18.0987C10.2705 18.3019 10.5461 18.416 10.8334 18.416ZM20.5834 6.49935H18.4167V5.41602C18.4167 4.55406 18.0743 3.72741 17.4648 3.11792C16.8554 2.50843 16.0287 2.16602 15.1667 2.16602H10.8334C9.97146 2.16602 9.14481 2.50843 8.53532 3.11792C7.92582 3.72741 7.58342 4.55406 7.58342 5.41602V6.49935H5.41675C4.55479 6.49935 3.72814 6.84176 3.11865 7.45125C2.50916 8.06075 2.16675 8.8874 2.16675 9.74935V20.5827C2.16675 21.4446 2.50916 22.2713 3.11865 22.8808C3.72814 23.4903 4.55479 23.8327 5.41675 23.8327H20.5834C21.4454 23.8327 22.272 23.4903 22.8815 22.8808C23.491 22.2713 23.8334 21.4446 23.8334 20.5827V9.74935C23.8334 8.8874 23.491 8.06075 22.8815 7.45125C22.272 6.84176 21.4454 6.49935 20.5834 6.49935ZM9.75008 5.41602C9.75008 5.1287 9.86422 4.85315 10.0674 4.64998C10.2705 4.44682 10.5461 4.33268 10.8334 4.33268H15.1667C15.4541 4.33268 15.7296 4.44682 15.9328 4.64998C16.1359 4.85315 16.2501 5.1287 16.2501 5.41602V6.49935H9.75008V5.41602ZM21.6667 20.5827C21.6667 20.87 21.5526 21.1456 21.3494 21.3487C21.1463 21.5519 20.8707 21.666 20.5834 21.666H5.41675C5.12943 21.666 4.85388 21.5519 4.65072 21.3487C4.44755 21.1456 4.33341 20.87 4.33341 20.5827V12.9993H21.6667V20.5827ZM21.6667 10.8327H4.33341V9.74935C4.33341 9.46203 4.44755 9.18648 4.65072 8.98332C4.85388 8.78015 5.12943 8.66602 5.41675 8.66602H20.5834C20.8707 8.66602 21.1463 8.78015 21.3494 8.98332C21.5526 9.18648 21.6667 9.46203 21.6667 9.74935V10.8327Z" fill="#6167B1"/>
</svg>
