<svg width="93" height="49" viewBox="0 0 93 49" fill="none" xmlns="http://www.w3.org/2000/svg">
<rect width="93" height="49"/>
<path d="M18.6773 34.2814C19.4173 34.2814 19.7373 34.9114 19.7373 35.4914C19.7373 36.0814 19.4073 36.6914 18.6373 36.6914H16.9973V34.2814H18.6773ZM15.9273 40.1914H16.9973V37.6614H18.6973C20.1873 37.6614 20.7973 36.5914 20.7973 35.4914C20.7973 34.3914 20.1873 33.3014 18.6973 33.3014H15.9273V40.1914ZM25.2858 40.1914H26.3058V35.5214H25.2858V36.1814C24.9658 35.6514 24.2758 35.4214 23.7158 35.4214C22.4558 35.4214 21.3458 36.3614 21.3458 37.8514C21.3458 39.3414 22.4558 40.2914 23.7158 40.2914C24.2958 40.2914 24.9758 40.0314 25.2858 39.5214V40.1914ZM22.4058 37.8414C22.4058 36.9814 23.0558 36.4214 23.8358 36.4214C24.5358 36.4214 25.2758 36.9214 25.2758 37.8414C25.2758 38.7614 24.5958 39.2914 23.8358 39.2914C23.0558 39.2914 22.4058 38.7014 22.4058 37.8414ZM28.7793 38.5114C28.7793 37.2714 29.1493 36.3914 30.0293 36.3914C30.2293 36.3914 30.4593 36.4214 30.7193 36.5514L30.8893 35.6014C30.7393 35.5014 30.3893 35.4214 30.0593 35.4214C29.4793 35.4214 29.0193 35.7614 28.7793 36.5914V35.5214H27.7493V40.1914H28.7793V38.5114ZM33.1434 33.7514H32.1134V35.5214H31.2734V36.3714H32.1134V40.1914H33.1434V36.3714H34.1334V35.5214H33.1434V33.7514ZM36.1328 37.6814C36.1328 36.7614 36.7228 36.4314 37.3328 36.4314C37.9328 36.4314 38.3128 36.8514 38.3128 37.5914V40.1914H39.3428V37.4714C39.3428 36.1514 38.6928 35.4214 37.5628 35.4214C37.0428 35.4214 36.4028 35.6814 36.1328 36.2214V35.5214H35.1028V40.1914H36.1328V37.6814ZM45.1776 37.8414C45.1776 36.3614 44.1676 35.4214 42.8376 35.4214C41.5076 35.4214 40.4376 36.3614 40.4376 37.8414C40.4376 39.3214 41.5076 40.2914 42.8376 40.2914C43.7176 40.2914 44.5876 39.9114 44.9976 39.0914C44.7276 38.9714 44.4176 38.8414 44.1576 38.7214C43.9176 39.1514 43.4076 39.3914 42.8876 39.3914C42.1376 39.3914 41.5576 38.9414 41.4576 38.2214H45.1676C45.1776 38.1214 45.1776 37.9514 45.1776 37.8414ZM41.4576 37.4714C41.5576 36.7514 42.1176 36.3214 42.8376 36.3214C43.5376 36.3214 44.0676 36.7414 44.1676 37.4714H41.4576ZM47.2949 38.5114C47.2949 37.2714 47.6649 36.3914 48.5449 36.3914C48.7449 36.3914 48.9749 36.4214 49.2349 36.5514L49.4049 35.6014C49.2549 35.5014 48.9049 35.4214 48.5749 35.4214C47.9949 35.4214 47.5349 35.7614 47.2949 36.5914V35.5214H46.2649V40.1914H47.2949V38.5114ZM52.7438 40.1914H56.5638V39.2214H53.8038V33.3014H52.7438V40.1914ZM59.6059 39.2914C58.8359 39.2914 58.1959 38.7214 58.1959 37.8414C58.1959 36.9814 58.8359 36.4314 59.6059 36.4314C60.3859 36.4314 61.0259 36.9814 61.0259 37.8414C61.0259 38.7214 60.3859 39.2914 59.6059 39.2914ZM59.6059 40.2914C60.9359 40.2914 62.0559 39.3214 62.0559 37.8414C62.0559 36.3614 60.9359 35.4214 59.6059 35.4214C58.2859 35.4214 57.1759 36.3614 57.1759 37.8414C57.1759 39.3214 58.2859 40.2914 59.6059 40.2914ZM66.8285 37.8614C66.8285 38.7714 66.0885 39.3014 65.3885 39.3014C64.6085 39.3014 63.9685 38.7414 63.9685 37.8614C63.9685 37.0114 64.6085 36.4214 65.3885 36.4214C66.1585 36.4214 66.8285 36.9314 66.8285 37.8614ZM63.9785 40.7814C63.7985 40.8614 63.3085 41.1314 63.1285 41.2114C63.5685 42.0514 64.3885 42.5214 65.2885 42.5214C66.8585 42.5214 67.8585 41.6514 67.8585 39.5014V35.5214H66.8485V36.2114C66.5585 35.7014 65.8985 35.4214 65.2685 35.4214C64.0085 35.4214 62.9085 36.3814 62.9085 37.8714C62.9085 39.3514 64.0085 40.2914 65.2685 40.2914C65.8985 40.2914 66.5785 40.0014 66.8485 39.4814C66.8485 39.5614 66.8485 39.6414 66.8485 39.7214C66.8485 41.0314 66.2385 41.5614 65.2885 41.5614C64.7785 41.5614 64.2285 41.2714 63.9785 40.7814ZM71.432 39.2914C70.662 39.2914 70.022 38.7214 70.022 37.8414C70.022 36.9814 70.662 36.4314 71.432 36.4314C72.212 36.4314 72.852 36.9814 72.852 37.8414C72.852 38.7214 72.212 39.2914 71.432 39.2914ZM71.432 40.2914C72.762 40.2914 73.882 39.3214 73.882 37.8414C73.882 36.3614 72.762 35.4214 71.432 35.4214C70.112 35.4214 69.002 36.3614 69.002 37.8414C69.002 39.3214 70.112 40.2914 71.432 40.2914Z" fill="#F4F4F4"/>
</svg>
