<svg width="120" height="29" viewBox="0 0 120 29" fill="none" xmlns="http://www.w3.org/2000/svg">
<path d="M5.67965 24.8313C2.17369 24.8313 0.039442 23.0037 0 20.2557H4.26412C4.26412 21.1846 4.92149 21.6124 5.75854 21.6124C6.40714 21.6124 7.02068 21.2883 7.02068 20.6316C7.02068 19.9014 6.04778 19.6896 4.81193 19.4909C2.81791 19.1711 0.170915 18.5792 0.170915 15.5028C0.170915 12.9622 2.36652 11.3203 5.6665 11.3203C8.94458 11.3203 11.0657 13.04 11.1183 15.6108H6.96809C6.96809 14.7985 6.4159 14.4226 5.61392 14.4226C4.90396 14.4226 4.42627 14.7683 4.42627 15.3559C4.42627 16.0775 5.41232 16.246 6.63064 16.462C8.6641 16.8163 11.3637 17.2354 11.3637 20.4501C11.3681 23.0987 9.09796 24.8357 5.67965 24.8313Z" fill="white"/>
<path d="M26.9504 11.7308V28.9966H22.568V24.0018C21.6608 24.5418 20.5959 24.8486 19.4301 24.8486C15.4947 24.8486 12.6855 22.0315 12.6855 18.078C12.6855 14.1375 15.4859 11.3203 19.4301 11.3203C20.9552 11.3203 22.3182 11.8431 23.3743 12.7505L23.9441 11.7394L26.9504 11.7308ZM22.9054 18.0737C22.9054 16.4188 21.6871 15.1701 20.0261 15.1701C18.3652 15.1701 17.1469 16.4145 17.1469 18.0737C17.1469 19.7285 18.3783 20.9772 20.0261 20.9772C21.6871 20.9772 22.9054 19.7328 22.9054 18.0737Z" fill="white"/>
<path d="M29.5703 18.9722V11.6744L34.001 10.7973V18.7864C34.001 20.1258 34.7328 20.9122 35.9161 20.9122C37.0994 20.9122 37.8137 20.1129 37.8137 18.7864V10.793L42.2444 11.6701V18.9679C42.2444 22.5152 39.7113 24.8311 35.9117 24.8311C32.1121 24.8355 29.5703 22.5195 29.5703 18.9722Z" fill="white"/>
<path d="M58.5588 11.7162V24.4019H55.1318L54.7505 23.5032C53.6987 24.3458 52.362 24.8297 50.8676 24.8297C46.9322 24.8297 44.123 21.9996 44.123 18.059C44.123 14.1315 46.9366 11.3359 50.8676 11.3359C52.384 11.3359 53.7381 11.8328 54.7987 12.7013L55.2501 11.7205L58.5588 11.7162ZM54.3429 18.072C54.3429 16.4258 53.1246 15.1901 51.4636 15.1901C49.7939 15.1901 48.5844 16.4258 48.5844 18.072C48.5844 19.7269 49.8027 20.9669 51.4636 20.9669C53.1246 20.9626 54.3429 19.7269 54.3429 18.072Z" fill="white"/>
<path d="M74.9409 7.14844V24.4142H71.6629L71.2465 23.4723C70.1991 24.3408 68.8625 24.842 67.3637 24.842C63.4151 24.842 60.6016 22.0119 60.6016 18.0713C60.6016 14.1308 63.4151 11.3137 67.3637 11.3137C68.5513 11.3137 69.6382 11.6291 70.5585 12.1951V7.14844H74.9409ZM70.8346 18.0713C70.8346 16.4165 69.6163 15.1678 67.9553 15.1678C66.2944 15.1678 65.076 16.4122 65.076 18.0713C65.076 19.7305 66.2944 20.9749 67.9553 20.9749C69.6163 20.9749 70.8346 19.7305 70.8346 18.0713Z" fill="white"/>
<path d="M86.3929 20.5925V24.4207H83.3427C80.4985 24.4207 78.7674 22.7054 78.7674 19.8883V15.0965H76.4141V14.0768L82.177 8.02344H83.0885V11.7307H86.3228V15.0965H83.2025V19.1321C83.2025 20.0395 83.759 20.5882 84.6925 20.5882H86.3929V20.5925Z" fill="white"/>
<path d="M96.8382 11.6723V15.669H95.1159C93.547 15.669 92.8896 16.3474 92.8896 17.9633V24.4142H88.459V11.7285H91.4259L92.1183 13.137C93.0255 12.1 94.1299 11.668 95.6637 11.668H96.8382V11.6723Z" fill="white"/>
<path d="M98.5187 11.7304H102.949V24.4162H98.5187V11.7304ZM98.5494 10.1447V6.4375H102.914V10.1447" fill="white"/>
<path d="M119.999 18.0741C119.999 22.0276 117.186 24.8447 113.255 24.8447C112.089 24.8447 111.028 24.5423 110.117 24.0022V28.997H105.734V11.7312H108.75L109.306 12.7379C110.367 11.8349 111.725 11.3164 113.255 11.3164C117.186 11.3164 119.999 14.1249 119.999 18.0741ZM115.538 18.0741C115.538 16.4063 114.32 15.1705 112.659 15.1705C110.998 15.1705 109.779 16.4063 109.779 18.0741C109.779 19.7419 110.998 20.9776 112.659 20.9776C114.306 20.9776 115.538 19.7419 115.538 18.0741Z" fill="white"/>
<path d="M44.103 6.77604L36.9859 0.411553C36.3723 -0.137184 35.4345 -0.137184 34.8209 0.411553L27.7039 6.77604C27.2218 7.20811 26.9501 7.81734 26.9501 8.45682V10.1506L34.1811 6.87974V4.81873C34.1811 4.11013 34.4835 3.43609 35.0182 2.96512L35.5046 2.53305C35.7325 2.32997 36.0831 2.32997 36.311 2.53305L36.7974 2.96512C37.3321 3.44041 37.6345 4.11445 37.6345 4.81873V6.87974L44.8655 10.1506V8.45682C44.8568 7.81734 44.5807 7.20811 44.103 6.77604Z" fill="#A98ED8"/>
</svg>
