<svg width="26" height="26" viewBox="0 0 26 26" fill="none" xmlns="http://www.w3.org/2000/svg">
<path d="M20.5834 7.04104H19.1967L18.8501 5.95771C18.6253 5.32204 18.2085 4.772 17.6572 4.3838C17.106 3.99559 16.4476 3.78844 15.7734 3.79104H10.2267C9.54592 3.79231 8.88269 4.00736 8.33066 4.40584C7.77863 4.80431 7.36567 5.36609 7.15008 6.01187L6.80341 7.09521H5.41675C4.55479 7.09521 3.72814 7.43762 3.11865 8.04711C2.50916 8.6566 2.16675 9.48325 2.16675 10.3452V19.0119C2.16675 19.8738 2.50916 20.7005 3.11865 21.31C3.72814 21.9195 4.55479 22.2619 5.41675 22.2619H20.5834C21.4454 22.2619 22.272 21.9195 22.8815 21.31C23.491 20.7005 23.8334 19.8738 23.8334 19.0119V10.3452C23.8406 9.91387 23.7619 9.48543 23.6017 9.08485C23.4416 8.68426 23.2034 8.31956 22.9009 8.01201C22.5984 7.70446 22.2377 7.46021 21.8398 7.29351C21.4419 7.1268 21.0148 7.04098 20.5834 7.04104ZM21.6667 18.9577C21.6667 19.245 21.5526 19.5206 21.3494 19.7237C21.1463 19.9269 20.8707 20.041 20.5834 20.041H5.41675C5.12943 20.041 4.85388 19.9269 4.65072 19.7237C4.44755 19.5206 4.33341 19.245 4.33341 18.9577V10.291C4.33341 10.0037 4.44755 9.72817 4.65072 9.52501C4.85388 9.32184 5.12943 9.20771 5.41675 9.20771H7.58341C7.81965 9.22004 8.05343 9.1547 8.24905 9.02168C8.44467 8.88866 8.59137 8.69527 8.66675 8.47104L9.25175 6.69437C9.32442 6.4792 9.46289 6.29231 9.64757 6.16012C9.83225 6.02793 10.0538 5.95712 10.2809 5.95771H15.8276C16.0547 5.95712 16.2762 6.02793 16.4609 6.16012C16.6456 6.29231 16.7841 6.4792 16.8567 6.69437L17.4417 8.47104C17.5113 8.67768 17.6415 8.85854 17.8155 8.98997C17.9894 9.1214 18.199 9.19728 18.4167 9.20771H20.5834C20.8707 9.20771 21.1463 9.32184 21.3494 9.52501C21.5526 9.72817 21.6667 10.0037 21.6667 10.291V18.9577ZM13.0001 9.20771C12.143 9.20771 11.3052 9.46185 10.5926 9.93801C9.88 10.4142 9.32458 11.0909 8.9966 11.8827C8.66862 12.6746 8.58281 13.5458 8.75001 14.3864C8.91721 15.227 9.32992 15.9991 9.93595 16.6052C10.542 17.2112 11.3141 17.6239 12.1547 17.7911C12.9953 17.9583 13.8666 17.8725 14.6584 17.5445C15.4502 17.2165 16.127 16.6611 16.6031 15.9485C17.0793 15.2359 17.3334 14.3981 17.3334 13.541C17.3334 12.3918 16.8769 11.2896 16.0642 10.4769C15.2516 9.66425 14.1494 9.20771 13.0001 9.20771ZM13.0001 15.7077C12.5716 15.7077 12.1527 15.5806 11.7963 15.3426C11.44 15.1045 11.1623 14.7661 10.9983 14.3702C10.8344 13.9743 10.7914 13.5386 10.875 13.1183C10.9586 12.6981 11.165 12.312 11.468 12.009C11.771 11.706 12.1571 11.4996 12.5774 11.416C12.9977 11.3324 13.4333 11.3753 13.8292 11.5393C14.2251 11.7033 14.5635 11.981 14.8016 12.3373C15.0397 12.6936 15.1667 13.1125 15.1667 13.541C15.1667 14.1157 14.9385 14.6668 14.5321 15.0731C14.1258 15.4794 13.5747 15.7077 13.0001 15.7077Z" fill="#6167B1"/>
</svg>
