<svg width="86" height="33" viewBox="0 0 86 33" fill="none" xmlns="http://www.w3.org/2000/svg">
<path d="M4.07044 30.0108C1.55782 30.0108 0.028267 28.6996 0 26.7282H3.05597C3.05597 27.3946 3.52709 27.7015 4.12698 27.7015C4.59181 27.7015 5.03152 27.469 5.03152 26.9979C5.03152 26.474 4.33427 26.3221 3.44857 26.1795C2.01952 25.9501 0.12249 25.5255 0.12249 23.3184C0.12249 21.4958 1.69602 20.3179 4.06102 20.3179C6.41032 20.3179 7.93045 21.5516 7.96814 23.3959H4.99383C4.99383 22.8132 4.59809 22.5435 4.02333 22.5435C3.51453 22.5435 3.17218 22.7915 3.17218 23.2131C3.17218 23.7307 3.87886 23.8516 4.75199 24.0066C6.20931 24.2608 8.14403 24.5615 8.14403 26.8677C8.14717 28.7678 6.52025 30.0139 4.07044 30.0108Z" fill="white"/>
<path d="M19.314 20.6123V32.999H16.1733V29.4157C15.5231 29.8032 14.7599 30.0232 13.9245 30.0232C11.1041 30.0232 9.09082 28.0022 9.09082 25.1659C9.09082 22.3389 11.0978 20.3179 13.9245 20.3179C15.0175 20.3179 15.9942 20.6929 16.7512 21.3439L17.1595 20.6185L19.314 20.6123ZM16.4151 25.1628C16.4151 23.9756 15.542 23.0798 14.3516 23.0798C13.1613 23.0798 12.2881 23.9725 12.2881 25.1628C12.2881 26.35 13.1707 27.2458 14.3516 27.2458C15.542 27.2458 16.4151 26.3531 16.4151 25.1628Z" fill="white"/>
<path d="M21.1924 25.8074V20.5719L24.3677 19.9426V25.6741C24.3677 26.635 24.8922 27.1992 25.7402 27.1992C26.5882 27.1992 27.1002 26.6257 27.1002 25.6741V19.9395L30.2755 20.5688V25.8043C30.2755 28.3492 28.4601 30.0107 25.7371 30.0107C23.014 30.0138 21.1924 28.3523 21.1924 25.8074Z" fill="white"/>
<path d="M41.9678 20.6019V29.7028H39.5117L39.2384 29.058C38.4847 29.6625 37.5267 30.0096 36.4557 30.0096C33.6353 30.0096 31.6221 27.9793 31.6221 25.1523C31.6221 22.3346 33.6384 20.3291 36.4557 20.3291C37.5424 20.3291 38.5129 20.6855 39.273 21.3086L39.5965 20.605L41.9678 20.6019ZM38.9464 25.1616C38.9464 23.9806 38.0732 23.0941 36.8829 23.0941C35.6862 23.0941 34.8194 23.9806 34.8194 25.1616C34.8194 26.3488 35.6925 27.2384 36.8829 27.2384C38.0732 27.2353 38.9464 26.3488 38.9464 25.1616Z" fill="white"/>
<path d="M53.7083 17.3249V29.7116H51.359L51.0606 29.0358C50.3099 29.6589 49.352 30.0185 48.2779 30.0185C45.448 30.0185 43.4316 27.9881 43.4316 25.1611C43.4316 22.3341 45.448 20.3131 48.2779 20.3131C49.129 20.3131 49.9079 20.5394 50.5675 20.9454V17.3249H53.7083ZM50.7653 25.1611C50.7653 23.9739 49.8922 23.0781 48.7019 23.0781C47.5115 23.0781 46.6384 23.9708 46.6384 25.1611C46.6384 26.3514 47.5115 27.2442 48.7019 27.2442C49.8922 27.2442 50.7653 26.3514 50.7653 25.1611Z" fill="white"/>
<path d="M61.9152 26.9699V29.7163H59.7292C57.6909 29.7163 56.4503 28.4856 56.4503 26.4646V23.027H54.7637V22.2954L58.8938 17.9526H59.5471V20.6122H61.865V23.027H59.6287V25.9221C59.6287 26.5731 60.0276 26.9668 60.6966 26.9668H61.9152V26.9699Z" fill="white"/>
<path d="M69.4007 20.5704V23.4377H68.1663C67.0419 23.4377 66.5708 23.9243 66.5708 25.0837V29.7116H63.3955V20.6107H65.5218L66.0181 21.6212C66.6682 20.8773 67.4597 20.5673 68.5589 20.5673H69.4007V20.5704Z" fill="white"/>
<path d="M70.6055 20.6121H73.7808V29.713H70.6055V20.6121ZM70.6275 19.4745V16.8149H73.7557V19.4745" fill="white"/>
<path d="M86.0006 25.1631C86.0006 27.9994 83.9842 30.0204 81.1669 30.0204C80.3315 30.0204 79.5714 29.8034 78.9181 29.416V32.9993H75.7773V20.6126H77.9382L78.3371 21.3349C79.0971 20.687 80.0708 20.3151 81.1669 20.3151C83.9842 20.3151 86.0006 22.3299 86.0006 25.1631ZM82.8033 25.1631C82.8033 23.9666 81.9301 23.0801 80.7398 23.0801C79.5494 23.0801 78.6763 23.9666 78.6763 25.1631C78.6763 26.3596 79.5494 27.2461 80.7398 27.2461C81.9207 27.2461 82.8033 26.3596 82.8033 25.1631Z" fill="white"/>
<path d="M31.6074 17.0579L26.5068 12.4919C26.0671 12.0982 25.395 12.0982 24.9553 12.4919L19.8547 17.0579C19.5092 17.3678 19.3145 17.8049 19.3145 18.2637V19.4788L24.4967 17.1323V15.6537C24.4967 15.1453 24.7134 14.6617 25.0966 14.3239L25.4452 14.0139C25.6086 13.8682 25.8598 13.8682 26.0231 14.0139L26.3718 14.3239C26.7549 14.6648 26.9717 15.1484 26.9717 15.6537V17.1323L32.1539 19.4788V18.2637C32.1477 17.8049 31.9498 17.3678 31.6074 17.0579Z" fill="#A98ED8"/>
<path d="M3.76223 1.11H1.05223V8H1.71223V5.31H3.73223C5.17223 5.31 5.73223 4.28 5.73223 3.21C5.73223 2.15 5.17223 1.11 3.76223 1.11ZM3.70223 4.69H1.71223V1.73H3.75223C4.70223 1.73 5.07223 2.47 5.07223 3.21C5.07223 3.96 4.69223 4.69 3.70223 4.69ZM8.85066 8.1C10.1807 8.1 11.3007 7.13 11.3007 5.65C11.3007 4.17 10.1807 3.23 8.85066 3.23C7.52066 3.23 6.41066 4.17 6.41066 5.65C6.41066 7.13 7.52066 8.1 8.85066 8.1ZM8.85066 7.49C7.86066 7.49 7.05066 6.76 7.05066 5.65C7.05066 4.55 7.86066 3.84 8.85066 3.84C9.83066 3.84 10.6607 4.55 10.6607 5.65C10.6607 6.76 9.83066 7.49 8.85066 7.49ZM18.6826 3.33L17.3226 7.03L15.9526 3.33H15.2926L13.9326 7.04L12.5626 3.33H11.8726L13.6626 8H14.2226L15.6126 4.18L17.0626 8H17.6226L19.3626 3.33H18.6826ZM24.6454 5.65C24.6454 4.17 23.6754 3.23 22.3454 3.23C21.0254 3.23 19.9654 4.17 19.9654 5.65C19.9654 7.13 21.0254 8.1 22.3454 8.1C23.2254 8.1 24.0254 7.68 24.4354 6.93L23.8854 6.69C23.5754 7.2 23.0054 7.49 22.3654 7.49C21.4254 7.49 20.7254 6.93 20.6154 5.93H24.6354C24.6454 5.84 24.6454 5.74 24.6454 5.65ZM20.6254 5.38C20.7454 4.38 21.4254 3.84 22.3454 3.84C23.2554 3.84 23.9254 4.41 24.0154 5.38H20.6254ZM28.0008 3.23C27.2708 3.23 26.7708 3.68 26.5408 4.47V3.33H25.8908V8H26.5408V6.24C26.5408 5.09 26.8808 3.85 27.9908 3.85C28.1608 3.85 28.3808 3.88 28.6208 3.98L28.7408 3.37C28.5608 3.28 28.2608 3.23 28.0008 3.23ZM33.7567 5.65C33.7567 4.17 32.7867 3.23 31.4567 3.23C30.1367 3.23 29.0767 4.17 29.0767 5.65C29.0767 7.13 30.1367 8.1 31.4567 8.1C32.3367 8.1 33.1367 7.68 33.5467 6.93L32.9967 6.69C32.6867 7.2 32.1167 7.49 31.4767 7.49C30.5367 7.49 29.8367 6.93 29.7267 5.93H33.7467C33.7567 5.84 33.7567 5.74 33.7567 5.65ZM29.7367 5.38C29.8567 4.38 30.5367 3.84 31.4567 3.84C32.3667 3.84 33.0367 4.41 33.1267 5.38H29.7367ZM38.9121 0.7V4.23C38.5621 3.6 37.8421 3.23 37.0521 3.23C35.7421 3.23 34.6821 4.24 34.6821 5.66C34.6821 7.08 35.7521 8.1 37.0521 8.1C37.8321 8.1 38.5621 7.73 38.9121 7.09V8H39.5521V0.7H38.9121ZM37.1021 7.49C36.1221 7.49 35.3221 6.69 35.3221 5.65C35.3221 4.62 36.1221 3.84 37.1021 3.84C38.0321 3.84 38.9121 4.55 38.9121 5.68C38.9121 6.76 38.0721 7.49 37.1021 7.49ZM46.2717 3.23C45.4817 3.23 44.7617 3.6 44.4117 4.24V0.7H43.7717V8H44.4117V7.08C44.7517 7.72 45.4917 8.1 46.2717 8.1C47.5817 8.1 48.6417 7.08 48.6417 5.66C48.6417 4.24 47.5817 3.23 46.2717 3.23ZM46.2217 7.49C45.2517 7.49 44.4117 6.76 44.4117 5.68C44.4117 4.55 45.2917 3.84 46.2217 3.84C47.2117 3.84 48.0117 4.62 48.0117 5.65C48.0117 6.69 47.2117 7.49 46.2217 7.49ZM53.0973 3.33L51.4873 7.15L49.8973 3.33H49.2073L51.1373 7.94L50.1773 10.27H50.8573L53.7873 3.33H53.0973Z" fill="white"/>
</svg>
