<svg width="169" height="48" viewBox="0 0 169 48" fill="none" xmlns="http://www.w3.org/2000/svg">
<g opacity="0.6">
<path d="M50.8664 33.9398C47.583 33.9398 45.5843 32.1812 45.5474 29.5372H49.5407C49.5407 30.431 50.1563 30.8426 50.9402 30.8426C51.5477 30.8426 52.1222 30.5308 52.1222 29.8989C52.1222 29.1963 51.2111 28.9926 50.0537 28.8014C48.1863 28.4937 45.7074 27.9242 45.7074 24.9642C45.7074 22.5197 47.7636 20.9399 50.8541 20.9399C53.924 20.9399 55.9104 22.5945 55.9596 25.0681H52.073C52.073 24.2866 51.5559 23.9249 50.8048 23.9249C50.1399 23.9249 49.6926 24.2575 49.6926 24.8228C49.6926 25.5171 50.616 25.6792 51.757 25.8871C53.6613 26.228 56.1895 26.6313 56.1895 29.7243C56.1936 32.2727 54.0676 33.9439 50.8664 33.9398Z" fill="#110C19"/>
<path d="M70.7883 21.3349V37.9474H66.6841V33.1416C65.8345 33.6612 64.8372 33.9564 63.7455 33.9564C60.06 33.9564 57.4292 31.2459 57.4292 27.4419C57.4292 23.6505 60.0518 20.9399 63.7455 20.9399C65.1738 20.9399 66.4502 21.443 67.4393 22.316L67.9728 21.3432L70.7883 21.3349ZM67.0001 27.4378C67.0001 25.8455 65.8592 24.6441 64.3037 24.6441C62.7482 24.6441 61.6072 25.8414 61.6072 27.4378C61.6072 29.03 62.7605 30.2315 64.3037 30.2315C65.8592 30.2315 67.0001 29.0342 67.0001 27.4378Z" fill="#110C19"/>
<path d="M73.2383 28.3019V21.2802L77.3876 20.4363V28.1231C77.3876 29.4119 78.073 30.1685 79.1811 30.1685C80.2892 30.1685 80.9582 29.3994 80.9582 28.1231V20.4321L85.1075 21.2761V28.2977C85.1075 31.7108 82.7353 33.9391 79.177 33.9391C75.6187 33.9433 73.2383 31.715 73.2383 28.3019Z" fill="#110C19"/>
<path d="M100.387 21.3224V33.5282H97.1778L96.8208 32.6635C95.8358 33.4741 94.584 33.9397 93.1845 33.9397C89.4989 33.9397 86.8682 31.2167 86.8682 27.4253C86.8682 23.6463 89.503 20.9565 93.1845 20.9565C94.6045 20.9565 95.8727 21.4346 96.8659 22.2702L97.2886 21.3265L100.387 21.3224ZM96.4391 27.4377C96.4391 25.8538 95.2981 24.6648 93.7426 24.6648C92.179 24.6648 91.0462 25.8538 91.0462 27.4377C91.0462 29.03 92.1872 30.2231 93.7426 30.2231C95.2981 30.219 96.4391 29.03 96.4391 27.4377Z" fill="#110C19"/>
<path d="M115.729 16.9277V33.5402H112.659L112.269 32.634C111.288 33.4696 110.036 33.9518 108.633 33.9518C104.935 33.9518 102.3 31.2288 102.3 27.4373C102.3 23.6459 104.935 20.9354 108.633 20.9354C109.745 20.9354 110.763 21.2388 111.624 21.7834V16.9277H115.729ZM111.883 27.4373C111.883 25.8451 110.742 24.6437 109.187 24.6437C107.631 24.6437 106.49 25.841 106.49 27.4373C106.49 29.0337 107.631 30.231 109.187 30.231C110.742 30.231 111.883 29.0337 111.883 27.4373Z" fill="#110C19"/>
<path d="M126.457 29.8626V33.5459H123.601C120.937 33.5459 119.316 31.8955 119.316 29.1849V24.5745H117.112V23.5934L122.509 17.769H123.362V21.336H126.391V24.5745H123.469V28.4574C123.469 29.3304 123.99 29.8584 124.865 29.8584H126.457V29.8626Z" fill="#110C19"/>
<path d="M136.237 21.281V25.1265H134.624C133.155 25.1265 132.539 25.7792 132.539 27.334V33.5408H128.39V21.3351H131.169L131.817 22.6903C132.667 21.6926 133.701 21.2769 135.137 21.2769H136.237V21.281Z" fill="#110C19"/>
<path d="M137.809 21.3349H141.958V33.5406H137.809V21.3349ZM137.838 19.8091V16.2422H141.926V19.8091" fill="#110C19"/>
<path d="M157.927 27.438C157.927 31.2419 155.293 33.9525 151.611 33.9525C150.519 33.9525 149.526 33.6615 148.673 33.1418V37.9476H144.568V21.3351H147.392L147.913 22.3038C148.906 21.4349 150.179 20.936 151.611 20.936C155.293 20.936 157.927 23.6383 157.927 27.438ZM153.749 27.438C153.749 25.8333 152.608 24.6443 151.053 24.6443C149.497 24.6443 148.357 25.8333 148.357 27.438C148.357 29.0427 149.497 30.2317 151.053 30.2317C152.596 30.2317 153.749 29.0427 153.749 27.438Z" fill="#110C19"/>
<path d="M86.8518 16.5665L80.1866 10.4429C79.612 9.91488 78.7338 9.91488 78.1592 10.4429L71.494 16.5665C71.0425 16.9823 70.7881 17.5684 70.7881 18.1837V19.8134L77.56 16.6663V14.6833C77.56 14.0015 77.8431 13.353 78.3439 12.8998L78.7994 12.4841C79.0128 12.2887 79.3412 12.2887 79.5546 12.4841L80.0102 12.8998C80.5109 13.3571 80.794 14.0056 80.794 14.6833V16.6663L87.5659 19.8134V18.1837C87.5577 17.5684 87.2992 16.9823 86.8518 16.5665Z" fill="#110C19"/>
<path d="M3.31948 27.5165H1.2436V32.6064H2.27046V30.8261H3.31948C4.47193 30.8261 4.98167 30.0134 4.98167 29.1786C4.98167 28.3439 4.47193 27.5165 3.31948 27.5165ZM3.26777 29.9248H2.27046V28.4251H3.28255C3.76273 28.4251 3.94742 28.8093 3.94742 29.1786C3.94742 29.5406 3.76273 29.9248 3.26777 29.9248ZM7.15862 32.6729C8.14116 32.6729 9.01288 31.9637 9.01288 30.8778C9.01288 29.7844 8.14116 29.0752 7.15862 29.0752C6.17608 29.0752 5.30435 29.7844 5.30435 30.8778C5.30435 31.9637 6.17608 32.6729 7.15862 32.6729ZM7.15862 31.7717C6.67843 31.7717 6.28689 31.4097 6.28689 30.8778C6.28689 30.3385 6.67843 29.9765 7.15862 29.9765C7.63881 29.9765 8.03034 30.3385 8.03034 30.8778C8.03034 31.4097 7.63881 31.7717 7.15862 31.7717ZM13.7508 29.1639L13.1007 31.2619L12.4432 29.1639H11.6305L10.9731 31.2619L10.323 29.1639H9.27393L10.5298 32.6064H11.3572L12.0442 30.368L12.7534 32.6064H13.5808L14.7998 29.1639H13.7508ZM18.6999 30.8261C18.6999 29.7696 17.8946 29.0752 16.9121 29.0752C15.9222 29.0752 15.08 29.7696 15.08 30.8852C15.08 31.949 15.8557 32.6729 16.9121 32.6729C17.5179 32.6729 18.1236 32.4365 18.4487 32.0007L17.8798 31.4318C17.673 31.6756 17.3258 31.816 16.9786 31.816C16.5132 31.816 16.1881 31.5944 16.0847 31.1954H18.6851C18.6925 31.0403 18.6999 30.9221 18.6999 30.8261ZM16.0847 30.5675C16.1881 30.1021 16.5353 29.9174 16.9269 29.9174C17.3627 29.9174 17.7025 30.1612 17.7321 30.5675H16.0847ZM21.422 29.0752C20.9935 29.0752 20.602 29.319 20.4099 29.8952V29.1639H19.4495V32.6064H20.4173V31.4244C20.4173 30.4419 20.7571 29.9839 21.2521 29.9839C21.3703 29.9839 21.5402 29.9987 21.747 30.1095L21.9687 29.186C21.8135 29.1048 21.6067 29.0752 21.422 29.0752ZM25.8204 30.8261C25.8204 29.7696 25.0152 29.0752 24.0327 29.0752C23.0427 29.0752 22.2006 29.7696 22.2006 30.8852C22.2006 31.949 22.9762 32.6729 24.0327 32.6729C24.6384 32.6729 25.2442 32.4365 25.5693 32.0007L25.0004 31.4318C24.7936 31.6756 24.4464 31.816 24.0991 31.816C23.6337 31.816 23.3087 31.5944 23.2053 31.1954H25.8057C25.813 31.0403 25.8204 30.9221 25.8204 30.8261ZM23.2053 30.5675C23.3087 30.1021 23.6559 29.9174 24.0474 29.9174C24.4833 29.9174 24.8231 30.1612 24.8527 30.5675H23.2053ZM29.1631 27.3244V29.5776C28.9193 29.2304 28.4539 29.0826 28.055 29.0826C27.1685 29.0826 26.3632 29.7696 26.3632 30.8778C26.3632 31.9859 27.1685 32.6729 28.055 32.6729C28.4391 32.6729 28.9193 32.5178 29.1631 32.178V32.6064H30.1309V27.3244H29.1631ZM28.2397 31.7717C27.7521 31.7717 27.3458 31.3801 27.3458 30.8778C27.3458 30.368 27.7521 29.9913 28.2397 29.9913C28.6903 29.9913 29.1336 30.3459 29.1336 30.8778C29.1336 31.4023 28.7125 31.7717 28.2397 31.7717ZM34.9441 29.0826C34.5526 29.0826 34.0798 29.2304 33.836 29.5776V27.3244H32.8682V32.6064H33.836V32.178C34.0798 32.5252 34.5526 32.6729 34.9441 32.6729C35.8306 32.6729 36.6358 31.9859 36.6358 30.8778C36.6358 29.7696 35.8306 29.0826 34.9441 29.0826ZM34.7594 31.7717C34.2866 31.7717 33.8655 31.4023 33.8655 30.8778C33.8655 30.3459 34.3088 29.9913 34.7594 29.9913C35.247 29.9913 35.6459 30.368 35.6459 30.8778C35.6459 31.3801 35.247 31.7717 34.7594 31.7717ZM39.5287 29.1639L38.7382 31.1511L37.9256 29.1639H36.8618L38.2211 32.2814L37.4085 34.2982H38.4427L40.5703 29.1639H39.5287Z" fill="black"/>
</g>
</svg>
