<svg width="16" height="16" viewBox="0 0 16 16" fill="none" xmlns="http://www.w3.org/2000/svg">
<path fill-rule="evenodd" clip-rule="evenodd" d="M7.33325 2.66732C4.75592 2.66732 2.66659 4.75666 2.66659 7.33398C2.66659 9.91131 4.75592 12.0007 7.33325 12.0007C9.91058 12.0007 11.9999 9.91131 11.9999 7.33398C11.9999 4.75666 9.91058 2.66732 7.33325 2.66732ZM1.33325 7.33398C1.33325 4.02028 4.01954 1.33398 7.33325 1.33398C10.647 1.33398 13.3333 4.02028 13.3333 7.33398C13.3333 10.6477 10.647 13.334 7.33325 13.334C4.01954 13.334 1.33325 10.6477 1.33325 7.33398Z" fill="#94A3B8"/>
<path fill-rule="evenodd" clip-rule="evenodd" d="M10.6285 10.6292C10.8889 10.3689 11.311 10.3689 11.5713 10.6292L14.4713 13.5292C14.7317 13.7896 14.7317 14.2117 14.4713 14.4721C14.211 14.7324 13.7889 14.7324 13.5285 14.4721L10.6285 11.5721C10.3682 11.3117 10.3682 10.8896 10.6285 10.6292Z" fill="#94A3B8"/>
</svg>
