<svg width="96" height="96" viewBox="0 0 96 96" fill="none" xmlns="http://www.w3.org/2000/svg">
<path d="M48 8C25.9453 8 8 25.9453 8 48C8 70.0547 25.9453 88 48 88C70.0547 88 88 70.0547 88 48C88 43.4961 87.2148 39.1758 85.8359 35.1328L79.3594 41.6094C79.7812 43.6719 80 45.8125 80 48C80 65.6445 65.6445 80 48 80C30.3555 80 16 65.6445 16 48C16 30.3555 30.3555 16 48 16C54.5312 16 60.6094 17.9766 65.6797 21.3516L71.4062 15.625C64.8125 10.8477 56.7383 8 48 8ZM85.1719 13.1719L44 54.3438L30.8281 41.1719L25.1719 46.8281L44 65.6562L90.8281 18.8281L85.1719 13.1719Z" fill="#A98ED8"/>
</svg>
