<svg width="26" height="26" viewBox="0 0 26 26" fill="none" xmlns="http://www.w3.org/2000/svg">
<path d="M9.20841 18.416C9.49573 18.416 9.77128 18.3019 9.97445 18.0987C10.1776 17.8956 10.2917 17.62 10.2917 17.3327C10.2971 17.2606 10.2971 17.1881 10.2917 17.116C10.2799 17.0481 10.258 16.9824 10.2267 16.921C10.203 16.852 10.1702 16.7864 10.1292 16.726L9.99925 16.5635C9.89622 16.4649 9.77473 16.3876 9.64175 16.336C9.43924 16.2407 9.21216 16.2104 8.99175 16.2493L8.79675 16.3144L8.60175 16.4118C8.54499 16.4518 8.49073 16.4953 8.43925 16.5419L8.30925 16.7043C8.26825 16.7647 8.23546 16.8303 8.21175 16.8994C8.18051 16.9608 8.15861 17.0265 8.14675 17.0943C8.14143 17.1665 8.14143 17.2389 8.14675 17.311C8.14675 17.5983 8.26088 17.8739 8.46405 18.077C8.66721 18.2802 8.94276 18.3943 9.23008 18.3943L9.20841 18.416ZM17.8751 18.416C18.1624 18.416 18.4379 18.3019 18.6411 18.0987C18.8443 17.8956 18.9584 17.62 18.9584 17.3327C18.9637 17.2606 18.9637 17.1881 18.9584 17.116C18.9466 17.0481 18.9246 16.9824 18.8934 16.921C18.8697 16.852 18.8369 16.7864 18.7959 16.726L18.6659 16.5635C18.5606 16.4678 18.4397 16.3909 18.3084 16.336C18.0447 16.2277 17.7488 16.2277 17.4851 16.336C17.3538 16.3909 17.2329 16.4678 17.1276 16.5635L16.9976 16.726C16.9566 16.7864 16.9238 16.852 16.9001 16.921C16.8688 16.9824 16.8469 17.0481 16.8351 17.116C16.8298 17.1881 16.8298 17.2606 16.8351 17.3327C16.8363 17.6169 16.9491 17.8892 17.1492 18.091C17.3412 18.2874 17.6007 18.4036 17.8751 18.416ZM14.6251 5.41602H12.4584C12.1711 5.41602 11.8955 5.53015 11.6924 5.73332C11.4892 5.93648 11.3751 6.21203 11.3751 6.49935C11.3751 6.78667 11.4892 7.06222 11.6924 7.26538C11.8955 7.46855 12.1711 7.58268 12.4584 7.58268H14.6251C14.9124 7.58268 15.1879 7.46855 15.3911 7.26538C15.5943 7.06222 15.7084 6.78667 15.7084 6.49935C15.7084 6.21203 15.5943 5.93648 15.3911 5.73332C15.1879 5.53015 14.9124 5.41602 14.6251 5.41602ZM20.0417 2.16602H7.04175C6.17979 2.16602 5.35314 2.50843 4.74365 3.11792C4.13416 3.72741 3.79175 4.55406 3.79175 5.41602V18.416C3.79363 19.0865 4.00287 19.7401 4.39076 20.287C4.77866 20.8339 5.32624 21.2475 5.95841 21.471V22.7493C5.95841 23.0367 6.07255 23.3122 6.27572 23.5154C6.47888 23.7185 6.75443 23.8327 7.04175 23.8327C7.32907 23.8327 7.60462 23.7185 7.80778 23.5154C8.01094 23.3122 8.12508 23.0367 8.12508 22.7493V21.666H18.9584V22.7493C18.9584 23.0367 19.0725 23.3122 19.2757 23.5154C19.4789 23.7185 19.7544 23.8327 20.0417 23.8327C20.3291 23.8327 20.6046 23.7185 20.8078 23.5154C21.0109 23.3122 21.1251 23.0367 21.1251 22.7493V21.471C21.7573 21.2475 22.3048 20.8339 22.6927 20.287C23.0806 19.7401 23.2899 19.0865 23.2917 18.416V5.41602C23.2917 4.55406 22.9493 3.72741 22.3398 3.11792C21.7304 2.50843 20.9037 2.16602 20.0417 2.16602ZM21.1251 18.416C21.1251 18.7033 21.0109 18.9789 20.8078 19.182C20.6046 19.3852 20.3291 19.4993 20.0417 19.4993H7.04175C6.75443 19.4993 6.47888 19.3852 6.27572 19.182C6.07255 18.9789 5.95841 18.7033 5.95841 18.416V15.166H21.1251V18.416ZM21.1251 12.9993H5.95841V5.41602C5.95841 5.1287 6.07255 4.85315 6.27572 4.64998C6.47888 4.44682 6.75443 4.33268 7.04175 4.33268H20.0417C20.3291 4.33268 20.6046 4.44682 20.8078 4.64998C21.0109 4.85315 21.1251 5.1287 21.1251 5.41602V12.9993Z" fill="#6167B1"/>
</svg>
