<svg width="27" height="16" viewBox="0 0 27 16" fill="none" xmlns="http://www.w3.org/2000/svg">
<g opacity="0.8" clip-path="url(#clip0_1271_24442)">
<path d="M1.48206 0H25.513C26.3299 0 26.9951 0.566667 26.9951 1.2625V14.7333C26.9951 15.4292 26.3299 15.9958 25.513 15.9958H1.48206C0.665217 16 0 15.4333 0 14.7375V1.2625C0 0.566667 0.665217 0 1.48206 0Z" fill="#B22234"/>
<path d="M0.00978261 1.1377H26.9951C27 1.17936 27.0049 1.22103 27.0049 1.26686V2.49186H0V1.2627C0 1.22103 0.0048913 1.17936 0.00978261 1.1377ZM27 3.6127V4.9627H0V3.6127H27ZM27 6.0877V7.4377H0V6.0877H27ZM27 8.5627V9.9127H0V8.5627H27ZM27 11.0377V12.3877H0V11.0377H27ZM27 13.5127V14.7335C27 14.7752 26.9951 14.821 26.9902 14.8627H0.00978261C0.0048913 14.8252 0 14.7794 0 14.7377V13.5169H27V13.5127Z" fill="white"/>
<path d="M10.1739 0V8.61667H0V1.2625C0 0.566667 0.665217 0 1.48207 0H10.1739Z" fill="#3C3B6E"/>
<path d="M0.601546 1.19189L0.939046 2.08773L0.0488281 1.53356H1.15426L0.259154 2.08773L0.601546 1.19189Z" fill="white"/>
<path d="M0.601546 2.9248L0.939046 3.82064L0.0488281 3.26647H1.15426L0.259154 3.82064L0.601546 2.9248Z" fill="white"/>
<path d="M0.601546 4.6582L0.939046 5.55404L0.0488281 4.99987H1.15426L0.259154 5.55404L0.601546 4.6582Z" fill="white"/>
<path d="M0.601546 6.3916L0.939046 7.28744L0.0488281 6.73327H1.15426L0.259154 7.28744L0.601546 6.3916Z" fill="white"/>
<path d="M1.7949 0.325195L2.1373 1.22103L1.24219 0.666862H2.35251L1.45251 1.22103L1.7949 0.325195Z" fill="white"/>
<path d="M1.7949 2.05811L2.1373 2.95394L1.24219 2.39977H2.35251L1.45251 2.95394L1.7949 2.05811Z" fill="white"/>
<path d="M1.7949 3.7915L2.1373 4.68734L1.24219 4.13317H2.35251L1.45251 4.68734L1.7949 3.7915Z" fill="white"/>
<path d="M1.7949 5.5249L2.1373 6.42073L1.24219 5.86657H2.35251L1.45251 6.42073L1.7949 5.5249Z" fill="white"/>
<path d="M1.7949 7.2583L2.1373 8.15413L1.24219 7.59997H2.35251L1.45251 8.15413L1.7949 7.2583Z" fill="white"/>
<path d="M2.99412 1.19189L3.33651 2.08773L2.44141 1.53356H3.54684L2.65173 2.08773L2.99412 1.19189Z" fill="white"/>
<path d="M2.99412 2.9248L3.33651 3.82064L2.44141 3.26647H3.54684L2.65173 3.82064L2.99412 2.9248Z" fill="white"/>
<path d="M2.99412 4.6582L3.33651 5.55404L2.44141 4.99987H3.54684L2.65173 5.55404L2.99412 4.6582Z" fill="white"/>
<path d="M2.99412 6.3916L3.33651 7.28744L2.44141 6.73327H3.54684L2.65173 7.28744L2.99412 6.3916Z" fill="white"/>
<path d="M4.19139 0.325195L4.52889 1.22103L3.63867 0.666862H4.74411L3.849 1.22103L4.19139 0.325195Z" fill="white"/>
<path d="M4.19139 2.05811L4.52889 2.95394L3.63867 2.39977H4.74411L3.849 2.95394L4.19139 2.05811Z" fill="white"/>
<path d="M4.19139 3.7915L4.52889 4.68734L3.63867 4.13317H4.74411L3.849 4.68734L4.19139 3.7915Z" fill="white"/>
<path d="M4.19139 5.5249L4.52889 6.42073L3.63867 5.86657H4.74411L3.849 6.42073L4.19139 5.5249Z" fill="white"/>
<path d="M4.19139 7.2583L4.52889 8.15413L3.63867 7.59997H4.74411L3.849 8.15413L4.19139 7.2583Z" fill="white"/>
<path d="M5.38573 1.19189L5.72812 2.08773L4.83301 1.53356H5.93844L5.04333 2.08773L5.38573 1.19189Z" fill="white"/>
<path d="M5.38573 2.9248L5.72812 3.82064L4.83301 3.26647H5.93844L5.04333 3.82064L5.38573 2.9248Z" fill="white"/>
<path d="M5.38573 4.6582L5.72812 5.55404L4.83301 4.99987H5.93844L5.04333 5.55404L5.38573 4.6582Z" fill="white"/>
<path d="M5.38573 6.3916L5.72812 7.28744L4.83301 6.73327H5.93844L5.04333 7.28744L5.38573 6.3916Z" fill="white"/>
<path d="M6.58299 0.325195L6.92538 1.22103L6.03027 0.666862H7.13571L6.2406 1.22103L6.58299 0.325195Z" fill="white"/>
<path d="M6.58299 2.05811L6.92538 2.95394L6.03027 2.39977H7.13571L6.2406 2.95394L6.58299 2.05811Z" fill="white"/>
<path d="M6.58299 3.7915L6.92538 4.68734L6.03027 4.13317H7.13571L6.2406 4.68734L6.58299 3.7915Z" fill="white"/>
<path d="M6.58299 5.5249L6.92538 6.42073L6.03027 5.86657H7.13571L6.2406 6.42073L6.58299 5.5249Z" fill="white"/>
<path d="M6.58299 7.2583L6.92538 8.15413L6.03027 7.59997H7.13571L6.2406 8.15413L6.58299 7.2583Z" fill="white"/>
<path d="M7.77733 1.19189L8.11972 2.08773L7.22461 1.53356H8.33004L7.43983 2.08773L7.77733 1.19189Z" fill="white"/>
<path d="M7.77733 2.9248L8.11972 3.82064L7.22461 3.26647H8.33004L7.43983 3.82064L7.77733 2.9248Z" fill="white"/>
<path d="M7.77733 4.6582L8.11972 5.55404L7.22461 4.99987H8.33004L7.43983 5.55404L7.77733 4.6582Z" fill="white"/>
<path d="M7.77733 6.3916L8.11972 7.28744L7.22461 6.73327H8.33004L7.43983 7.28744L7.77733 6.3916Z" fill="white"/>
<path d="M8.97459 0.325195L9.31698 1.22103L8.42188 0.666862H9.52731L8.6322 1.22103L8.97459 0.325195Z" fill="white"/>
<path d="M8.97459 2.05811L9.31698 2.95394L8.42188 2.39977H9.52731L8.6322 2.95394L8.97459 2.05811Z" fill="white"/>
<path d="M8.97459 3.7915L9.31698 4.68734L8.42188 4.13317H9.52731L8.6322 4.68734L8.97459 3.7915Z" fill="white"/>
<path d="M8.97459 5.5249L9.31698 6.42073L8.42188 5.86657H9.52731L8.6322 6.42073L8.97459 5.5249Z" fill="white"/>
<path d="M8.97459 7.2583L9.31698 8.15413L8.42188 7.59997H9.52731L8.6322 8.15413L8.97459 7.2583Z" fill="white"/>
</g>
<defs>
<clipPath id="clip0_1271_24442">
<rect width="27" height="16" fill="white"/>
</clipPath>
</defs>
</svg>
