<svg width="26" height="26" viewBox="0 0 26 26" fill="none" xmlns="http://www.w3.org/2000/svg">
<path d="M23.3242 7.74583C23.1596 7.65075 22.9727 7.6007 22.7826 7.6007C22.5924 7.6007 22.4056 7.65075 22.2409 7.74583L18.4167 9.63083C18.3859 8.7897 18.0299 7.99335 17.4237 7.40939C16.8175 6.82544 16.0084 6.49943 15.1667 6.5H5.41675C4.55479 6.5 3.72814 6.84241 3.11865 7.4519C2.50916 8.0614 2.16675 8.88805 2.16675 9.75V16.25C2.16675 17.112 2.50916 17.9386 3.11865 18.5481C3.72814 19.1576 4.55479 19.5 5.41675 19.5H15.1667C16.0084 19.5006 16.8175 19.1746 17.4237 18.5906C18.0299 18.0067 18.3859 17.2103 18.4167 16.3692L22.2734 18.2975C22.4211 18.3732 22.5842 18.414 22.7501 18.4167C22.9529 18.4173 23.1518 18.361 23.3242 18.2542C23.4804 18.1566 23.609 18.0208 23.6981 17.8597C23.7872 17.6986 23.8338 17.5174 23.8334 17.3333V8.66667C23.8338 8.48256 23.7872 8.3014 23.6981 8.14028C23.609 7.97916 23.4804 7.84341 23.3242 7.74583ZM16.2501 16.25C16.2501 16.5373 16.1359 16.8129 15.9328 17.016C15.7296 17.2192 15.4541 17.3333 15.1667 17.3333H5.41675C5.12943 17.3333 4.85388 17.2192 4.65072 17.016C4.44755 16.8129 4.33341 16.5373 4.33341 16.25V9.75C4.33341 9.46268 4.44755 9.18713 4.65072 8.98397C4.85388 8.7808 5.12943 8.66667 5.41675 8.66667H15.1667C15.4541 8.66667 15.7296 8.7808 15.9328 8.98397C16.1359 9.18713 16.2501 9.46268 16.2501 9.75V16.25ZM21.6667 15.5783L18.4167 13.9533V12.0467L21.6667 10.4217V15.5783Z" fill="#6167B1"/>
</svg>
